<svg xmlns="http://www.w3.org/2000/svg" xmlns:xlink="http://www.w3.org/1999/xlink" version="1.1" x="0px" y="0px" viewBox="0 0 100 125" enable-background="new 0 0 100 100" xml:space="preserve"><path fill="#000000" d="M69.987,35.557c-0.003,0-0.007-0.001-0.011-0.001l-1.156-0.062h-0.001c-0.007,0-0.015-0.001-0.021-0.002  l-0.17-0.028h-0.392c-0.005,0-0.011-0.001-0.015-0.001l-0.391-0.03l-0.764,0.062l-0.438,0.055l-0.049,0.039l-0.163,1.279  l0.419-0.052c0.001-0.001,0.002,0.001,0.004,0.001s0.003-0.002,0.004-0.002l0.781-0.062c0.006-0.001,0.01,0.005,0.016,0.004  c0.005,0,0.008-0.005,0.014-0.004l1,0.062l1.154,0.062c0.002,0,0.003,0.002,0.004,0.002c0.002,0,0.004-0.002,0.006-0.002l1.25,0.125  c0.001,0,0.001,0.002,0.002,0.002s0.002-0.001,0.002-0.001l1.25,0.156c0.001,0,0.001,0.001,0.001,0.001  c0.001,0,0.001-0.001,0.002-0.001l0.788,0.108l0.869-1.182l-0.317-0.063c-0.005-0.001-0.008-0.007-0.013-0.009  c-0.013-0.004-0.025-0.002-0.037-0.009l-0.02-0.01h-0.079c-0.011,0-0.021-0.001-0.03-0.003l-1.031-0.156  c-0.002,0-0.003-0.002-0.005-0.003c-0.01-0.001-0.019-0.001-0.028-0.005l-0.075-0.024l-1.132-0.122c0,0-0.001,0-0.002,0  l-1.081-0.124H69.987z"/><path fill="#000000" d="M57.896,28.953C57.896,28.953,57.896,28.953,57.896,28.953l-7.057-2.259l-0.089,0.035  c-0.013,0.006-0.026,0.006-0.039,0.008c-0.004,0-0.005,0.004-0.009,0.005l-0.938,0.125c-0.009,0.001-0.017,0.002-0.026,0.002h0  c-0.01,0-0.02-0.001-0.029-0.003l-0.639-0.094l1.383,1.643c0.001,0.002,0,0.003,0.001,0.004c0.001,0.002,0.002,0.002,0.003,0.002  l0.212,0.273l0.844,0.969c0,0.001,0,0.002,0.001,0.004c0.001,0.001,0.003,0,0.004,0.002l0.125,0.156l1.882,2.252l0.531,0.307  l0.777,0.145l0.886-0.148l1.03-0.332l0.639-0.365c0.001-0.001,0.002,0,0.004,0c0.004-0.003,0.009-0.003,0.014-0.005  c0.003-0.001,0.004-0.005,0.007-0.007l0.14-0.056l0.225-0.141l0.43-0.338c0.001,0,0.001,0,0.002,0c0-0.001,0-0.001,0-0.001  l0.549-0.427l0.15-0.15l0.709-0.709l0.216-0.287L57.896,28.953C57.896,28.954,57.896,28.953,57.896,28.953z"/><path fill="#000000" d="M72.742,34.319l-0.13,1.135l0.692,0.105l-0.01-0.17l-0.334-0.167c-0.011-0.005-0.013-0.018-0.021-0.024  c-0.012-0.009-0.025-0.012-0.035-0.022c-0.011-0.012-0.012-0.026-0.02-0.04c-0.012-0.021-0.019-0.038-0.022-0.061  c-0.002-0.012-0.013-0.02-0.013-0.031c0-0.004,0.004-0.006,0.004-0.01s-0.004-0.006-0.003-0.01l0.053-0.557L72.742,34.319z"/><polygon fill="#000000" points="72.217,35.386 72.426,33.558 70.626,32.966 70.374,35.063 70.362,35.181 71.26,35.282 "/><polygon fill="#000000" points="39.446,25.813 48.24,28.596 47.902,28.187 39.713,25.61 "/><path fill="#000000" d="M55.917,78.075c-0.004,0.005-0.002,0.012-0.007,0.017l-0.438,0.438c-0.009,0.009-0.021,0.007-0.031,0.013  c-0.009,0.007-0.011,0.02-0.021,0.024l-0.5,0.25c-0.021,0.011-0.043,0.013-0.066,0.017c-0.004,0-0.006,0.004-0.01,0.004l-0.5,0.031  c-0.004,0-0.009,0.001-0.013,0.001h-0.375c-0.023,0-0.047-0.005-0.07-0.013l-0.5-0.188c-0.011-0.004-0.014-0.017-0.023-0.021  c-0.012-0.008-0.026-0.006-0.036-0.014l-0.438-0.375c-0.008-0.007-0.007-0.018-0.014-0.025c-0.005-0.006-0.014-0.004-0.019-0.01  l-0.406-0.562c-0.003-0.004-0.001-0.008-0.003-0.012c-0.003-0.006-0.01-0.008-0.012-0.014l-2.5-4.812  c-0.001-0.002,0-0.006-0.001-0.01s-0.006-0.005-0.008-0.01l-0.281-0.719c-0.002-0.005,0.002-0.01,0-0.016  c-0.002-0.007-0.009-0.01-0.011-0.018l-0.156-0.781c-0.001-0.006,0.004-0.01,0.003-0.016c0-0.005-0.006-0.008-0.006-0.014  l-0.018-0.365l-0.279,0.168l-0.34,0.368l-0.289,0.521l-0.177,0.617l-0.06,0.718v9.17h8.568v-5.659l-0.951,1.291  C55.927,78.073,55.92,78.071,55.917,78.075z"/><polygon fill="#000000" points="48.148,26.3 47.622,25.686 46.832,25.432 46.102,25.432 47.233,26.788 48.17,27.882 48.171,27.885   48.173,27.886 48.55,28.344 49.675,28.344 49.87,28.344 48.148,26.3 "/><polygon fill="#000000" points="48.433,26.017 48.965,26.353 49.738,26.467 50.003,26.432 48.343,25.912 "/><polygon fill="#000000" points="49.642,28.744 48.709,28.744 50.743,29.388 50.404,28.998 "/><path fill="#000000" d="M57.281,82.638c0,0.11-0.09,0.2-0.2,0.2h-8.969c-0.11,0-0.2-0.09-0.2-0.2v-9.375  c0-0.004,0.003-0.006,0.003-0.009c0-0.003-0.002-0.005-0.002-0.008l0.062-0.75c0-0.008,0.008-0.012,0.009-0.02  c0.001-0.007-0.004-0.013-0.002-0.019l0.188-0.656c0.002-0.009,0.012-0.012,0.015-0.02c0.003-0.008-0.001-0.016,0.003-0.023  l0.312-0.562c0.004-0.008,0.014-0.008,0.02-0.015c0.005-0.007,0.002-0.017,0.008-0.023l0.375-0.406  c0.007-0.008,0.019-0.006,0.027-0.013c0.008-0.006,0.008-0.018,0.017-0.023l0.469-0.281c0.009-0.005,0.019,0,0.028-0.004v-0.012  c0-0.004,0.004-0.007,0.005-0.012c0-0.004-0.004-0.006-0.003-0.01l0.032-0.291l-0.008,0.002l-0.54,0.341l-0.434,0.462l-0.354,0.678  l-0.239,0.775l-0.09,0.844v9.917h9.6v-0.487v-6.57l-0.131,0.17V82.638z"/><path fill="#000000" d="M47.777,71.439c0.002-0.007-0.002-0.013,0.001-0.019l0.375-0.719c0.004-0.01,0.016-0.01,0.021-0.018  c0.006-0.009,0.003-0.02,0.01-0.027l0.469-0.5c0.006-0.007,0.017-0.005,0.024-0.011c0.007-0.006,0.007-0.017,0.015-0.021l0.158-0.1  h-3.1l-0.567,0.085l-0.536,0.339l-0.434,0.462l-0.354,0.678l-0.239,0.775l-0.09,0.844v5.055V78.7v0.219  c0,0.006-0.006,0.01-0.006,0.016c0,0.006,0.006,0.01,0.006,0.016v4.175h3.881V73.2c0-0.004,0.004-0.007,0.005-0.011  c0-0.004-0.004-0.007-0.003-0.011l0.094-0.875c0-0.008,0.008-0.011,0.01-0.018s-0.004-0.013-0.002-0.02l0.25-0.812  C47.767,71.447,47.774,71.445,47.777,71.439z"/><polygon fill="#000000" points="40.465,25.017 40.095,25.31 47.411,27.612 46.966,27.093 "/><path fill="#000000" d="M53.552,63.245c0.002-0.008,0.009-0.014,0.013-0.021c0.006-0.016,0-0.032,0.01-0.046l0.447-0.626  l0.201-0.807l-0.059-0.979l-0.302-1.056l-0.546-1.061l-0.73-1.005l-0.852-0.853l-0.968-0.635l-0.931-0.42l-0.876-0.146l-0.77,0.143  L47.7,56.06l0.125-0.024c0.013-0.003,0.022,0.007,0.035,0.007s0.022-0.01,0.036-0.008l0.938,0.156  c0.008,0.002,0.012,0.01,0.02,0.012c0.007,0.003,0.015-0.003,0.022,0l1,0.406c0.008,0.004,0.01,0.013,0.017,0.018  c0.008,0.004,0.017,0,0.024,0.005l0.969,0.688c0.004,0.003,0.004,0.01,0.008,0.013c0.004,0.004,0.011,0.002,0.015,0.006l0.906,0.875  c0.005,0.005,0.003,0.012,0.007,0.018c0.005,0.004,0.012,0.004,0.016,0.01l0.75,1.031c0.004,0.005,0.002,0.012,0.005,0.018  s0.011,0.006,0.014,0.012l0.531,1.094c0.003,0.006-0.001,0.012,0.001,0.018c0.002,0.007,0.01,0.009,0.012,0.016l0.312,1.094  c0.002,0.007-0.004,0.014-0.002,0.021c0.001,0.008,0.009,0.013,0.01,0.021l0.062,1.031c0,0.011-0.01,0.019-0.011,0.029  c-0.001,0.012,0.007,0.02,0.005,0.031l-0.188,0.746L53.552,63.245z"/><path fill="#000000" d="M72.847,37.634l-0.574-0.079l-0.001-0.001l-1.236-0.154c-0.002,0-0.004,0-0.006,0l-1.25-0.125l-1.142-0.062  c-0.003-0.001-0.005-0.001-0.007-0.001l-0.987-0.061l-0.763,0.061l-0.446,0.056l-0.068,0.046l-0.055,0.653  c0,0.001-0.001,0.002-0.001,0.003s0,0.002,0,0.003l-0.799,7.098l0.742,0.495c0.008,0.004,0.008,0.014,0.014,0.02  c0.006,0.005,0.016,0.003,0.021,0.01l0.367,0.389l4.45-5.984l0.214-2.069c0.002-0.022,0.02-0.034,0.028-0.054  c0.013-0.025,0.019-0.053,0.04-0.072c0.018-0.016,0.039-0.017,0.061-0.025c0.023-0.01,0.043-0.028,0.069-0.028h1.243L72.847,37.634z  "/><polygon fill="#000000" points="72.467,38.15 71.699,38.15 71.574,39.364 "/><path fill="#000000" d="M56.531,59.61l-1.056-2.71h-2.295l0.131,0.122c0.005,0.006,0.004,0.014,0.009,0.019  c0.004,0.005,0.012,0.005,0.016,0.011l0.75,1.031c0.004,0.004,0.002,0.011,0.004,0.016c0.004,0.005,0.01,0.005,0.013,0.01  l0.562,1.094c0.003,0.007-0.001,0.014,0.002,0.02c0.003,0.008,0.011,0.01,0.013,0.018l0.312,1.094  c0.002,0.008-0.004,0.016-0.003,0.025c0.001,0.008,0.01,0.015,0.011,0.023l0.031,1.031c0,0.008-0.008,0.013-0.008,0.02  c-0.001,0.009,0.006,0.015,0.004,0.023l-0.039,0.211L56.531,59.61z"/><path fill="#000000" d="M61.956,49.25h2.243l1.863-2.493l-0.673-0.622l-0.909-0.667l-0.949-0.415l-0.283-0.028  c0,0,0-0.001-0.001-0.001c-0.003,0-0.006,0-0.009-0.001l-0.406-0.062l0,0l-0.216-0.027l-0.742,0.115l-0.151,0.1l-0.463,0.309  l-3.023,2.37c-0.001,0.001-0.002,0-0.002,0.001c0,0,0,0-0.001,0.001l-0.906,0.688h-0.001l-1.402,1.092  c-0.001,0-0.001,0.001-0.001,0.001l-0.666,0.52l0.163-0.031c0.012-0.002,0.021,0.008,0.033,0.008c0.013,0,0.023-0.011,0.035-0.008  l0.938,0.156c0.01,0.002,0.014,0.011,0.022,0.014c0.009,0.002,0.017-0.004,0.025,0l1,0.438c0.007,0.004,0.007,0.011,0.013,0.014  c0.006,0.004,0.014,0,0.02,0.004l0.969,0.656c0.006,0.004,0.006,0.012,0.011,0.017s0.014,0.003,0.019,0.008l0.406,0.406  c0.004,0.003,0.002,0.009,0.005,0.013c0.003,0.003,0.009,0.002,0.011,0.006c0.015,0.018,0.01,0.041,0.018,0.061  c0.009,0.026,0.021,0.048,0.021,0.075c-0.002,0.025-0.017,0.044-0.028,0.067c-0.01,0.021-0.008,0.045-0.025,0.062  c-0.004,0.003-0.009,0.002-0.012,0.005c-0.004,0.003-0.003,0.008-0.007,0.012L53.257,56.5h2.287l7.87-6.149  c0.004-0.005,0-0.012,0.004-0.018l0.491-0.683h-1.953c-0.11,0-0.2-0.09-0.2-0.2S61.846,49.25,61.956,49.25z"/><path fill="#000000" d="M73.764,35.084c0.011,0.005,0.012,0.017,0.021,0.023c0.008,0.006,0.02,0.005,0.026,0.012  c0.013,0.013,0.014,0.03,0.022,0.046c0.014,0.021,0.024,0.037,0.029,0.062c0.001,0.01,0.011,0.015,0.012,0.024l0.022,0.408  l0.349,0.07l0.975-1.3l-2.031-0.652l-0.022,0.188l0.3,0.274c0.001,0.001,0,0.003,0.002,0.005c0.004,0.004,0.006,0.01,0.01,0.016  c0.016,0.018,0.019,0.04,0.027,0.062c0.007,0.021,0.023,0.038,0.023,0.061c0,0.001,0.002,0.002,0.002,0.004  c0,0.006-0.006,0.009-0.006,0.015c0,0.005,0.004,0.009,0.004,0.014l-0.074,0.514L73.764,35.084z"/><path fill="#000000" d="M29.612,28.844h0.333l-1.876-4.85H27.23l0.153,0.163c0.003,0.004,0.001,0.009,0.004,0.012  c0.003,0.004,0.009,0.004,0.011,0.008l0.75,1.031c0.003,0.004,0.001,0.01,0.004,0.016c0.003,0.005,0.009,0.005,0.012,0.01  l0.562,1.094c0.003,0.007-0.001,0.014,0.002,0.021c0.002,0.007,0.011,0.009,0.013,0.017l0.312,1.094  c0.002,0.008-0.004,0.016-0.003,0.023c0.001,0.01,0.01,0.016,0.01,0.025l0.031,1.031c0,0.008-0.007,0.013-0.007,0.02  c-0.001,0.009,0.006,0.015,0.004,0.023l-0.049,0.263H29.612z"/><path fill="#000000" d="M40.873,11.428l-0.206,0.059c-0.019,0.005-0.037,0.008-0.055,0.008c-0.003,0-0.005-0.003-0.007-0.003  l-0.913,0.502l-9.032,7.045l-1.336,4.342l1.967,5.055l3.241,0.707l4.239-3.318c0,0,0.001,0,0.002,0c0,0,0-0.002,0.001-0.002  l0.125-0.094h0l0.655-0.499l0.747-0.591c0,0,0-0.001,0-0.001l1.031-0.812c0,0,0,0,0,0c0.001-0.001,0-0.001,0.001-0.001l0.112-0.087  l-0.266-0.093l-6.726,5.276c-0.009,0.008-0.022,0.006-0.033,0.011c-0.008,0.005-0.01,0.016-0.019,0.019  c-0.023,0.009-0.048,0.014-0.072,0.014c-0.054,0-0.101-0.028-0.138-0.067c-0.005-0.006-0.014-0.003-0.019-0.01  c-0.005-0.006-0.002-0.016-0.006-0.021c-0.006-0.012-0.018-0.018-0.023-0.029l-3.594-9.25c-0.006-0.017,0.003-0.032,0.001-0.049  c-0.003-0.027-0.005-0.049,0.002-0.074c0.007-0.025,0.02-0.043,0.036-0.064c0.01-0.014,0.01-0.031,0.024-0.043l9.031-7.062  c0.005-0.003,0.011-0.001,0.016-0.004c0.005-0.004,0.005-0.01,0.011-0.014l0.906-0.5c0.013-0.006,0.027,0,0.04-0.004  c0.014-0.004,0.021-0.018,0.035-0.02l0.875-0.094c0.016-0.002,0.026,0.011,0.042,0.013c0.012,0.001,0.022-0.006,0.034-0.003  l0.044-0.033c0.013-0.01,0.028-0.005,0.042-0.011c0.013-0.007,0.02-0.021,0.035-0.024l0.4-0.089l-0.479-0.141h-0.034H41.34  L40.873,11.428z"/><polygon fill="#000000" points="30.529,28.544 28.647,23.708 28.447,23.861 30.324,28.714 "/><path fill="#000000" d="M36.129,25.647c-0.034,0.023-0.073,0.034-0.111,0.034h-0.131l-0.253,0.595l0.735-0.581l-0.11-0.134  L36.129,25.647z"/><polygon fill="#000000" points="38.981,17.621 37.907,18.469 38.769,18.469 "/><path fill="#000000" d="M35.125,22.749l0.036,0.498l0.499-0.392l-0.027-0.778l-0.301-1.023l-0.196-0.393l-0.583,0.441l0.238,0.477  c0.003,0.006-0.001,0.014,0.001,0.02s0.01,0.008,0.012,0.016l0.312,1.094c0.002,0.007-0.004,0.014-0.002,0.021  S35.124,22.741,35.125,22.749z"/><path fill="#000000" d="M40.219,13.148c0.003-0.007,0-0.014,0.003-0.021l0.375-0.625c0.004-0.006,0.013-0.006,0.018-0.012  c0.004-0.007,0.002-0.016,0.008-0.021l0.326-0.348l-0.212,0.022l-0.858,0.474l-8.901,6.961l3.442,8.859l6.295-4.938l-0.374-0.111  l-5.294,4.125c-0.003,0.002-0.007,0.001-0.01,0.003c-0.034,0.023-0.072,0.039-0.113,0.039c-0.03,0-0.061-0.007-0.089-0.021  c-0.017-0.009-0.021-0.026-0.034-0.038c-0.01-0.01-0.026-0.006-0.035-0.018c-0.008-0.01-0.003-0.023-0.009-0.033  c-0.013-0.023-0.017-0.045-0.02-0.072c-0.003-0.025-0.002-0.047,0.005-0.072c0.003-0.012-0.003-0.023,0.002-0.035l0.215-0.43  l0.624-1.465c0.001-0.002,0.004-0.002,0.005-0.005c0.001-0.002,0-0.005,0-0.007s0.005-0.002,0.006-0.005  c0.002-0.003,0-0.006,0.001-0.009l0.083-0.139l0.182-0.484c0.007-0.019,0.026-0.025,0.038-0.04c0.011-0.015,0.011-0.034,0.026-0.047  l2.94-2.311l-0.242-0.435c-0.004-0.008,0-0.016-0.002-0.021c-0.004-0.01-0.013-0.014-0.016-0.023l-0.108-0.398l-4.451,3.473  c-0.01,0.008-0.022,0.006-0.033,0.011c-0.008,0.005-0.011,0.015-0.02,0.019c-0.023,0.008-0.047,0.013-0.07,0.013  c-0.055,0-0.101-0.028-0.139-0.067c-0.005-0.006-0.014-0.004-0.019-0.01c-0.005-0.007-0.002-0.016-0.006-0.023  c-0.007-0.01-0.019-0.017-0.023-0.029l-0.094-0.25l-0.906-2.374c-0.006-0.017,0.003-0.032,0.001-0.048  c-0.003-0.027-0.005-0.048,0.002-0.074c0.007-0.025,0.02-0.043,0.036-0.063c0.01-0.014,0.01-0.032,0.023-0.042l1.375-1.094  c0-0.001,0.001,0,0.002-0.001c0-0.001,0-0.001,0.001-0.002l0.903-0.685l2.125-1.688c0,0,0,0,0-0.001l1.781-1.405  c0.002-0.002,0.006-0.001,0.008-0.003s0.002-0.005,0.005-0.007l0.125-0.084l0.824-3.145c0.001-0.004,0.005-0.004,0.006-0.008  s-0.002-0.006,0-0.01l0.25-0.688C40.208,13.156,40.216,13.155,40.219,13.148z"/><polygon fill="#000000" points="38.871,19.647 38.87,19.659 38.872,19.643 "/><polygon fill="#000000" points="34.231,21.354 33.164,22.203 33.923,24.192 34.78,23.544 34.727,22.798 34.425,21.74 "/><path fill="#000000" d="M36.46,25.044c0.027,0.004,0.046,0.018,0.068,0.032c0.015,0.01,0.034,0.009,0.046,0.022l0.203,0.229  l0.092-0.104c0.001-0.002,0.004-0.001,0.005-0.002c0.001-0.002,0-0.005,0.002-0.007l0.041-0.04l0.016-0.033  c0.049-0.099,0.168-0.139,0.268-0.089l0.011,0.005l2.465-1.944l-0.258-0.146c-0.009-0.004-0.009-0.016-0.017-0.021  s-0.019-0.004-0.026-0.011l-0.281-0.28l-2.878,2.261l-0.096,0.257l0.067-0.045c0.004-0.003,0.009-0.001,0.013-0.003  c0.004-0.003,0.004-0.008,0.008-0.01l0.125-0.062c0.017-0.009,0.035-0.001,0.052-0.004C36.413,25.044,36.435,25.038,36.46,25.044z"/><path fill="#000000" d="M37.401,18.869l-1.943,1.544l0.24,0.479c0.003,0.006-0.001,0.013,0.001,0.019  c0.002,0.007,0.01,0.009,0.012,0.015l0.312,1.062c0.002,0.009-0.004,0.017-0.002,0.025c0.001,0.009,0.01,0.016,0.01,0.024  l0.018,0.511l2.333-1.851v-0.341c0-0.005,0.005-0.008,0.005-0.013s-0.004-0.008-0.003-0.013l0.094-0.75  c0-0.004,0.006-0.007,0.007-0.012s-0.003-0.01-0.002-0.015l0.183-0.686H37.401z"/><polygon fill="#000000" points="45.343,25.155 42.328,24.212 41.522,24.184 40.844,24.718 46.488,26.52 45.521,25.359 "/><path fill="#000000" d="M42.069,68.925c0.007-0.015,0.01-0.027,0.021-0.039c0.011-0.013,0.023-0.018,0.037-0.027  c0.009-0.007,0.011-0.02,0.021-0.024l0.333-0.167l0.025-0.508c0-0.009,0.009-0.014,0.011-0.021c0.004-0.025,0.016-0.043,0.028-0.064  c0.01-0.017,0.013-0.036,0.028-0.049c0.006-0.006,0.014-0.006,0.021-0.01c0.008-0.006,0.009-0.018,0.018-0.021l0.309-0.166  l0.012-0.18l-0.372-0.172c-0.005-0.002-0.005-0.008-0.01-0.011c-0.007-0.003-0.014-0.002-0.02-0.007l-0.406-0.281  c-0.005-0.004-0.005-0.011-0.01-0.016c-0.005-0.004-0.013-0.002-0.018-0.007l-0.331-0.331l-1.613,2.179l-0.293,0.47l-0.051,0.153  h2.265l0.046-0.038l-0.078-0.546c0-0.005,0.004-0.009,0.003-0.014c0-0.006-0.006-0.009-0.006-0.015c0-0.012,0.011-0.02,0.013-0.031  C42.053,68.96,42.059,68.944,42.069,68.925z"/><path fill="#000000" d="M62.609,44.54c0.01,0,0.018-0.008,0.027-0.007l0.215,0.026l0.267-0.057l0.174-1.428l-1.144,1.525  l0.434-0.066C62.592,44.532,62.6,44.54,62.609,44.54z"/><path fill="#000000" d="M54.229,59.565c0.003,0.008,0.011,0.01,0.013,0.018l0.312,1.094c0.002,0.008-0.004,0.014-0.002,0.021  c0.001,0.008,0.009,0.013,0.01,0.021l0.048,0.792l0.021-0.11l-0.03-0.981L54.3,59.366l-0.546-1.061l-0.729-1.004l-0.486-0.455  c-0.001-0.002-0.001-0.003-0.001-0.004c-0.005-0.004-0.006-0.01-0.01-0.014c-0.002-0.004-0.008-0.002-0.01-0.006  c-0.014-0.018-0.01-0.039-0.017-0.06c-0.008-0.021-0.024-0.038-0.024-0.06c0-0.002-0.002-0.002-0.002-0.004  c0-0.005,0.005-0.008,0.005-0.012c0.002-0.025,0.017-0.044,0.027-0.066c0.009-0.02,0.007-0.042,0.022-0.059  c0-0.001,0.002,0,0.003-0.002c0.003-0.004,0.009-0.004,0.013-0.008c0.004-0.003,0.003-0.008,0.007-0.012l5.915-4.61l-0.233-0.233  l-0.938-0.635l-0.959-0.42l-0.878-0.146l-0.77,0.143l-0.617,0.41l-5.324,4.173l0.171-0.032c0.013-0.001,0.021,0.008,0.034,0.008  s0.022-0.011,0.036-0.008l0.938,0.156c0.009,0.002,0.014,0.012,0.023,0.014c0.009,0.004,0.018-0.002,0.027,0.002l0.969,0.438  c0.005,0.002,0.006,0.009,0.011,0.012c0.005,0.002,0.011,0,0.016,0.003l1,0.656c0.006,0.004,0.006,0.013,0.012,0.017  c0.006,0.006,0.014,0.004,0.02,0.009l0.875,0.875c0.004,0.005,0.003,0.011,0.006,0.016c0.004,0.005,0.011,0.003,0.014,0.009  l0.75,1.031c0.004,0.004,0.002,0.011,0.004,0.016c0.004,0.005,0.01,0.005,0.013,0.01l0.562,1.094  C54.23,59.553,54.227,59.56,54.229,59.565z"/><path fill="#000000" d="M63.579,44.44l0.844,0.125c0.01,0.001,0.015,0.011,0.023,0.014c0.009,0.002,0.018-0.004,0.026,0l0.66,0.283  l0.756-6.712H64.8h-0.375h-0.193l-0.076,0.788l-0.094,0.999c0,0.001-0.001,0.001-0.001,0.002s0,0.001,0,0.003l-0.281,2.438  l-0.25,2.061c0.008-0.001,0.015,0.006,0.023,0.006S63.569,44.438,63.579,44.44z"/><polygon fill="#000000" points="63.578,40.638 59.157,46.597 61.02,45.137 61.028,45.134 61.033,45.128 61.473,44.835   63.389,42.279 "/><path fill="#000000" d="M54.65,62.083c-0.023-0.012-0.045-0.02-0.062-0.041c-0.008-0.01-0.014-0.018-0.02-0.029l-0.078,0.313  l0.176-0.233C54.66,62.091,54.656,62.087,54.65,62.083z"/><polygon fill="#000000" points="64.546,37.253 64.178,37.75 64.301,37.75 "/><polygon fill="#000000" points="63.402,50.868 55.853,56.767 56.943,59.567 "/><polygon fill="#000000" points="65.119,37.75 65.929,37.75 65.976,37.184 65.978,37.179 65.977,37.175 66.182,35.562 "/><polygon fill="#000000" points="57.061,48.217 63.315,39.815 63.76,38.865 63.822,38.229 55.635,49.25 55.732,49.25 "/><polygon fill="#000000" points="54.324,49.25 65.253,34.525 65.062,34.466 54.105,49.25 "/><polygon fill="#000000" points="68.853,35.095 69.843,35.148 58.371,31.517 58.102,31.729 68.691,35.067 "/><polygon fill="#000000" points="60.125,29.84 59.929,30.102 59.916,30.107 59.91,30.123 59.425,30.608 64.41,32.177 61.557,30.289   "/><polygon fill="#000000" points="46.451,56.5 47.333,55.824 53.832,50.73 53.833,50.73 53.833,50.729 55.218,49.65 54.425,49.65   54.15,49.65 53.299,50.325 52.393,51.044 52.392,51.045 52.392,51.046 45.412,56.5 "/><path fill="#000000" d="M50.854,66.993c0,0,0-0.001,0-0.002c0,0-0.001-0.001-0.001-0.002l-0.03-0.151H50.8h-0.25  c-0.049,0-0.092-0.021-0.128-0.054c-0.012-0.01-0.017-0.023-0.026-0.037c-0.012-0.018-0.03-0.03-0.037-0.052l-0.135-0.45  l-0.255,0.057c-0.015,0.003-0.029,0.005-0.043,0.005c-0.05,0-0.095-0.021-0.131-0.054c-0.003-0.003-0.008-0.002-0.011-0.005  c-0.003-0.003-0.003-0.01-0.006-0.013c-0.011-0.008-0.016-0.021-0.025-0.03c-0.014-0.015-0.031-0.026-0.04-0.046l-0.143-0.307  l-0.019,0.006c-0.01,0.004-0.02,0.004-0.03,0.006c-0.002,0-0.003,0.002-0.005,0.002l-0.219,0.031  c-0.01,0.002-0.019,0.003-0.028,0.003h-0.031c-0.051,0-0.103-0.02-0.142-0.059c-0.003-0.003-0.002-0.009-0.005-0.013  c-0.011-0.008-0.016-0.021-0.025-0.03c-0.016-0.017-0.034-0.029-0.043-0.052l-0.089-0.206l-0.032-0.058l-0.255,0.142  c-0.031,0.017-0.064,0.025-0.097,0.025c-0.051,0-0.103-0.02-0.142-0.059l-0.062-0.062c-0.004-0.004-0.002-0.01-0.006-0.015  c-0.003-0.002-0.008-0.001-0.01-0.004c0-0.002,0-0.003-0.001-0.004s-0.002,0-0.003-0.002l-0.132-0.182l-0.251,0.168  c-0.034,0.023-0.073,0.034-0.111,0.034c-0.051,0-0.103-0.02-0.142-0.059l-0.094-0.094c-0.001-0.001-0.001-0.005-0.002-0.006  s-0.003-0.001-0.004-0.002l-0.134-0.148l-0.187,0.233c-0.04,0.049-0.098,0.075-0.156,0.075c-0.042,0-0.084-0.013-0.12-0.04  l-0.125-0.094l-0.016-0.012l-0.182,0.137c-0.006,0.004-0.014,0.003-0.021,0.007c-0.005,0.003-0.005,0.009-0.01,0.012l-0.037,0.019  l-0.324,0.295c-0.002,0.002-0.005,0-0.008,0.002c-0.002,0.002-0.001,0.006-0.003,0.007l-0.438,0.344  c-0.001,0.001-0.003,0.001-0.004,0.001c-0.001,0.001-0.001,0.003-0.002,0.004l-0.344,0.25h0l-0.276,0.215l-0.278,0.216  c0,0.001,0,0.001,0,0.001l-0.312,0.25c-0.002,0.002-0.004,0.001-0.006,0.002c-0.002,0.002-0.001,0.004-0.003,0.004l-0.005,0.004  l-0.001,0.002l-0.204,0.145l-0.184,0.154c-0.003,0.002-0.008,0.001-0.011,0.004c-0.003,0.002-0.002,0.006-0.006,0.008l-0.281,0.188  c-0.02,0.014-0.042,0.015-0.065,0.02c-0.008,0.003-0.012,0.012-0.021,0.013l-0.25,0.031c-0.008,0.001-0.017,0.002-0.025,0.002  c-0.007,0-0.011-0.007-0.018-0.007v0.244c0,0.012-0.011,0.02-0.013,0.031c-0.004,0.025-0.014,0.045-0.028,0.066  c-0.014,0.023-0.026,0.041-0.049,0.057c-0.009,0.007-0.011,0.02-0.021,0.024l-0.333,0.167l-0.025,0.508  c0,0.01-0.01,0.016-0.012,0.025c-0.004,0.025-0.015,0.042-0.029,0.062c-0.009,0.015-0.009,0.033-0.021,0.045  c-0.008,0.008-0.021,0.008-0.03,0.014c-0.008,0.006-0.01,0.018-0.019,0.022l-0.309,0.154l0.073,0.514  c0,0.005-0.004,0.009-0.003,0.014c0,0.006,0.006,0.009,0.006,0.015c0,0.002-0.002,0.003-0.002,0.004  c0,0.022-0.017,0.039-0.024,0.061c-0.008,0.022-0.011,0.045-0.027,0.062c-0.004,0.006-0.005,0.012-0.01,0.016  c-0.001,0.002,0,0.004-0.002,0.005l-0.297,0.272l0.046,0.322l0.031,0.156c0.001,0.008-0.005,0.013-0.004,0.02  c0.003,0.027-0.007,0.049-0.015,0.074s-0.012,0.047-0.028,0.067c-0.004,0.006-0.002,0.015-0.008,0.02l-0.291,0.29l0.153,0.511  c0.001,0.003-0.001,0.005-0.001,0.008c0.003,0.011,0,0.019,0.001,0.029c0.001,0.008,0.009,0.013,0.009,0.021  c0,0.018-0.015,0.029-0.02,0.047c-0.004,0.018-0.001,0.037-0.011,0.053c-0.001,0.003,0,0.006-0.001,0.008l-0.229,0.357l0.157,0.472  c0,0.002-0.001,0.004,0,0.006c0.003,0.011-0.001,0.021,0,0.031c0.001,0.01,0.011,0.017,0.011,0.026c0,0.018-0.014,0.027-0.018,0.043  c-0.004,0.018,0.001,0.035-0.007,0.05c-0.001,0.002,0,0.004,0,0.005l-0.226,0.402l0.226,0.402c0,0,0,0.002,0,0.003  c0.008,0.015,0.003,0.033,0.007,0.05c0.004,0.017,0.019,0.027,0.019,0.045c0,0.01-0.009,0.017-0.011,0.026  c-0.001,0.011,0.004,0.021,0.001,0.03c0,0.001,0.001,0.002,0,0.004l-0.159,0.504l0.23,0.359c0.002,0.002,0,0.006,0.001,0.01  c0.01,0.016,0.007,0.034,0.012,0.053c0.004,0.017,0.019,0.027,0.019,0.045c0,0.008-0.008,0.013-0.009,0.021  c-0.001,0.011,0.001,0.02-0.001,0.03c0,0.003,0.002,0.006,0.001,0.01l-0.153,0.482l0.296,0.321c0.003,0.003,0.001,0.009,0.004,0.012  c0.016,0.019,0.017,0.042,0.025,0.066c0.007,0.021,0.024,0.035,0.024,0.058c0,0.002-0.002,0.002-0.002,0.004  c0,0.006-0.003,0.01-0.003,0.016c0,0.004,0.003,0.008,0.003,0.012l-0.077,0.488l0.296,0.271c0.001,0.001,0,0.003,0.002,0.005  c0.005,0.004,0.006,0.01,0.01,0.016c0.016,0.018,0.019,0.04,0.027,0.062c0.007,0.021,0.023,0.038,0.024,0.061  c0,0.001,0.002,0.002,0.002,0.004c0,0.006-0.006,0.009-0.006,0.015c0,0.005,0.004,0.009,0.003,0.014l-0.073,0.514l0.309,0.154  c0.01,0.005,0.011,0.017,0.02,0.022c0.007,0.006,0.017,0.005,0.023,0.012c0.014,0.012,0.017,0.03,0.026,0.047  c0.014,0.021,0.024,0.039,0.028,0.063c0.002,0.009,0.012,0.015,0.012,0.024l0.025,0.5l0.044,0.02V73.2  c0-0.004,0.004-0.007,0.005-0.011c0-0.004-0.004-0.007-0.003-0.011l0.094-0.875c0-0.008,0.008-0.011,0.01-0.018  s-0.004-0.013-0.002-0.02l0.25-0.812c0.002-0.007,0.009-0.008,0.012-0.015c0.002-0.007-0.002-0.013,0.001-0.019l0.375-0.719  c0.004-0.01,0.015-0.01,0.021-0.018c0.006-0.009,0.003-0.02,0.01-0.027l0.469-0.5c0.006-0.007,0.017-0.005,0.024-0.011  s0.007-0.017,0.015-0.021l0.594-0.375c0.013-0.008,0.027-0.003,0.041-0.007c0.014-0.006,0.021-0.02,0.036-0.021l0.625-0.094  c0.005-0.001,0.009,0.004,0.015,0.004c0.005-0.001,0.009-0.007,0.015-0.007h3.8v-0.019c0-0.013,0.011-0.02,0.013-0.031  c0.002-0.012-0.006-0.023-0.002-0.035l0.25-0.719c0.002-0.006,0.009-0.007,0.012-0.013c0.002-0.005-0.001-0.012,0.002-0.017  l0.344-0.625c0.002-0.006,0.009-0.006,0.012-0.01c0.003-0.005,0-0.011,0.004-0.016l0.725-0.957L50.854,66.993z"/><path fill="#000000" d="M66.411,46.306l-0.397-0.42l-0.824-0.551c-0.007-0.004-0.006-0.012-0.012-0.017s-0.014-0.003-0.02-0.008  c-0.001-0.001-0.001-0.003-0.002-0.003l-0.816-0.351l-0.047-0.007l0.368,0.16c0.008,0.004,0.009,0.013,0.016,0.018  c0.007,0.004,0.016,0,0.022,0.005l0.938,0.688c0.004,0.003,0.003,0.007,0.006,0.01c0.004,0.003,0.009,0.001,0.012,0.005l0.653,0.603  L66.411,46.306z"/><polygon fill="#000000" points="65.911,34.722 65.659,34.649 54.822,49.25 55.137,49.25 65.545,35.237 "/><path fill="#000000" d="M66.425,35.2c0.016-0.012,0.036-0.008,0.054-0.016c0.017-0.007,0.027-0.023,0.047-0.026l0.5-0.062  c0.001-0.001,0.002,0.001,0.004,0.001s0.003-0.002,0.004-0.002l0.023-0.002l-0.56-0.18l-0.183,0.375L66.425,35.2z"/><path fill="#000000" d="M66.566,32.877c0.016,0.01,0.017,0.028,0.027,0.042c0.019,0.02,0.033,0.035,0.042,0.061  s0.009,0.047,0.007,0.073c0,0.017,0.01,0.032,0.005,0.05c-0.003,0.012-0.015,0.017-0.02,0.027c-0.004,0.008,0,0.018-0.005,0.024  s-0.016,0.005-0.021,0.011c-0.038,0.045-0.087,0.079-0.146,0.079c-0.019,0-0.039-0.003-0.058-0.009l-0.719-0.219  c-0.017-0.005-0.022-0.021-0.036-0.029c-0.009-0.005-0.02-0.006-0.028-0.012l-6.51-2.048l-0.07,0.07  c-0.004,0.003-0.009,0.002-0.013,0.005c-0.003,0.004-0.003,0.008-0.007,0.012l-0.262,0.203l11.251,3.562l0.232-1.939l-7.11-2.24  L66.566,32.877z"/><path fill="#000000" d="M43.005,65.806l-0.143-0.229l-0.191-0.191l-0.026-0.017h-0.002c-0.063,0-0.114-0.034-0.15-0.081  c-0.004-0.005-0.013-0.003-0.016-0.008l-0.026-0.04l-0.156-0.059h-0.177c-0.002,0-0.003,0.002-0.005,0.002s-0.003-0.002-0.005-0.002  h-0.12c-0.002,0-0.003,0.002-0.005,0.002c-0.001,0-0.003-0.001-0.004-0.002l-0.065,0.039l-0.054,0.091l-0.045,0.155l0.025,0.196  l0.055,0.222l0.105,0.237l0.164,0.191l0.179,0.178l0.185,0.158l0.199,0.075l0.164,0.023l0.12-0.021l0.085-0.051l0.071-0.106  c0-0.001,0-0.002,0-0.003l0.025-0.124l-0.026-0.184l-0.031-0.219c0-0.005,0.004-0.009,0.003-0.014c0-0.006-0.006-0.009-0.006-0.015  v-0.006L43.005,65.806z"/><polygon fill="#000000" points="44.799,63.982 44.793,63.978 44.795,63.979 "/><path fill="#000000" d="M28.713,29.208c-0.023-0.012-0.045-0.02-0.062-0.041c-0.008-0.01-0.014-0.018-0.02-0.029l-0.128,0.51  l0.523-0.403H28.8c-0.012,0-0.024-0.001-0.037-0.003C28.742,29.237,28.731,29.218,28.713,29.208z"/><path fill="#000000" d="M46.156,64.937l0.003,0.05c0.019-0.021,0.031-0.048,0.057-0.06l-0.021-0.287l-0.116-0.436l-0.2-0.43  l-0.292-0.379l-0.123-0.123c-0.024,0.011-0.044,0.034-0.07,0.034c-0.044,0-0.088-0.015-0.125-0.044l-0.106-0.085l0.019,0.046  l0.042,0.029c0.009,0.006,0.009,0.018,0.017,0.024c0.008,0.007,0.02,0.005,0.026,0.014l0.156,0.188c0.002,0.003,0,0.005,0.002,0.008  c0.001,0.002,0.005,0.002,0.006,0.004l0.312,0.438c0.003,0.004,0,0.009,0.003,0.013c0.002,0.005,0.008,0.005,0.011,0.01l0.25,0.469  c0.003,0.006,0,0.014,0.002,0.021c0.003,0.007,0.012,0.01,0.014,0.018l0.125,0.438c0.002,0.007-0.004,0.014-0.002,0.021  S46.155,64.929,46.156,64.937z"/><path fill="#000000" d="M41.821,76.379c-0.001-0.001,0-0.003-0.002-0.005c-0.004-0.003-0.005-0.008-0.008-0.012  c-0.017-0.018-0.019-0.041-0.027-0.064c-0.008-0.021-0.025-0.039-0.025-0.062c0-0.001-0.002-0.002-0.002-0.004  c0-0.004,0.004-0.007,0.004-0.011s-0.003-0.007-0.003-0.011l0.053-0.508l-0.289-0.342c-0.005-0.006-0.002-0.016-0.007-0.021  c-0.013-0.02-0.016-0.039-0.021-0.062c-0.004-0.017-0.019-0.027-0.019-0.045c0-0.004,0.003-0.006,0.003-0.008  c0-0.012,0.006-0.019,0.008-0.029c0.001-0.008-0.004-0.016-0.002-0.023l0.158-0.498l-0.254-0.356  c-0.004-0.006-0.001-0.013-0.004-0.019c-0.002-0.004-0.006-0.004-0.008-0.008v8.835h1.756v-4.013  c-0.014-0.004-0.021-0.018-0.034-0.023c-0.02-0.009-0.042-0.012-0.059-0.026c-0.006-0.006-0.007-0.015-0.013-0.021  c-0.014-0.017-0.018-0.034-0.025-0.056c-0.007-0.017-0.022-0.028-0.024-0.047l-0.052-0.543l-0.302-0.139  c-0.011-0.005-0.013-0.018-0.022-0.023c-0.01-0.008-0.024-0.007-0.033-0.016c-0.011-0.011-0.011-0.028-0.02-0.041  c-0.014-0.021-0.023-0.039-0.028-0.062c-0.002-0.012-0.013-0.018-0.013-0.029l-0.025-0.508l-0.333-0.167  c-0.01-0.005-0.012-0.018-0.021-0.024c-0.014-0.01-0.026-0.015-0.037-0.027c-0.01-0.012-0.013-0.024-0.021-0.039  c-0.01-0.02-0.016-0.035-0.02-0.057c-0.002-0.012-0.013-0.02-0.013-0.031c0-0.006,0.006-0.009,0.006-0.015  c0-0.005-0.004-0.009-0.003-0.014l0.079-0.552L41.821,76.379z"/><path fill="#000000" d="M45.209,63.868c-0.001,0-0.002,0.001-0.003,0.001c-0.002,0-0.003-0.002-0.005-0.003l0.205,0.32  c0.001,0.002,0,0.006,0.001,0.008c0.001,0.003,0.005,0.003,0.006,0.006l0.25,0.469c0.003,0.006,0,0.014,0.002,0.021  c0.002,0.006,0.01,0.008,0.012,0.015l-0.034-0.118l-0.233-0.438L45.209,63.868z"/><polygon fill="#000000" points="41.375,74.097 41.547,73.63 41.375,73.354 "/><polygon fill="#000000" points="41.42,72.787 41.546,72.586 41.464,72.376 "/><path fill="#000000" d="M46.872,63.069c0.003,0.004,0.01,0.005,0.013,0.01l0.217,0.436l-0.021-0.086l-0.23-0.431l-0.299-0.389  l-0.01-0.011c0.002,0.003,0.001,0.007,0.003,0.01c0.003,0.004,0.008,0.003,0.011,0.007l0.312,0.438  C46.872,63.058,46.869,63.063,46.872,63.069z"/><path fill="#000000" d="M52.82,61.422l-0.269-0.864l-0.488-1.007l-0.666-0.938l-0.82-0.82l-0.843-0.572l-0.737-0.324l-0.76-0.088  l-0.675,0.084l-0.366,0.262l-0.167,0.252c0,0,0,0,0,0l-0.138,0.221l-0.201,0.719l0.059,0.854l0.27,0.929l0.228,0.454l0.792-0.611  l-0.054-0.181c-0.002-0.008,0.004-0.015,0.002-0.022c-0.001-0.009-0.01-0.014-0.01-0.022l-0.031-0.5c0-0.012,0.009-0.019,0.01-0.03  c0.001-0.011-0.007-0.02-0.004-0.031l0.094-0.375c0.003-0.012,0.016-0.018,0.021-0.029s0-0.025,0.008-0.037l0.219-0.312  c0.004-0.005,0.011-0.004,0.016-0.01c0.004-0.004,0.002-0.012,0.007-0.017c0.002-0.003,0.006-0.001,0.009-0.004l0.002-0.003  c0.007-0.011,0.021-0.011,0.031-0.02c0.009-0.009,0.009-0.022,0.02-0.029l0.094-0.062c0.001-0.002,0.003,0,0.005-0.002  c0.001,0,0.001-0.002,0.003-0.004l0.156-0.094c0.012-0.007,0.025-0.001,0.038-0.006c0.013-0.004,0.019-0.018,0.033-0.02l0.375-0.062  c0.011-0.002,0.02,0.008,0.032,0.007c0.011,0,0.019-0.009,0.029-0.007l0.438,0.062c0.01,0.001,0.014,0.011,0.023,0.014  c0.009,0.002,0.018-0.004,0.027,0l0.221,0.095l0.004,0.002l0.212,0.091c0.002,0.001,0.002,0.004,0.004,0.004  c0.002,0.002,0.004,0,0.006,0.001l0.062,0.031c0.004,0.003,0.005,0.009,0.009,0.011c0.005,0.003,0.011,0,0.015,0.004l0.406,0.281  c0.005,0.004,0.005,0.011,0.01,0.016c0.005,0.004,0.013,0.002,0.018,0.007l0.375,0.375c0.005,0.005,0.003,0.013,0.007,0.019  c0.004,0.004,0.012,0.004,0.016,0.01l0.344,0.5c0.002,0.004,0,0.008,0.002,0.012c0.003,0.004,0.008,0.004,0.01,0.008l0.25,0.469  c0.004,0.007-0.001,0.015,0.002,0.022c0.003,0.007,0.012,0.011,0.014,0.019l0.094,0.344c0.001,0.002-0.001,0.005,0,0.008  c0,0.002,0.004,0.003,0.004,0.006l0.031,0.156c0,0.002-0.002,0.004-0.002,0.008c0.001,0.002,0.004,0.002,0.004,0.005l0.062,0.469  c0.002,0.016-0.01,0.027-0.012,0.042c-0.001,0.016,0.009,0.028,0.004,0.043l-0.125,0.406c-0.003,0.01-0.013,0.016-0.018,0.025  c-0.003,0.007,0.001,0.016-0.004,0.021l-0.156,0.25c-0.004,0.006-0.012,0.004-0.017,0.01c-0.006,0.008-0.003,0.02-0.011,0.026  c-0.006,0.006-0.017,0.005-0.023,0.01s-0.008,0.015-0.016,0.021l-0.014,0.008c-0.008,0.007-0.008,0.018-0.018,0.023l-0.312,0.188  c-0.012,0.007-0.025,0.006-0.039,0.01c-0.006,0.003-0.008,0.011-0.016,0.012l-0.375,0.094c-0.016,0.005-0.032,0.007-0.048,0.007  c-0.015,0-0.03-0.002-0.045-0.005l-0.406-0.094c-0.003-0.001-0.004-0.004-0.007-0.006c-0.007-0.002-0.015-0.001-0.022-0.004  l-0.457-0.183l-0.809,0.63l0.029,0.024l0.814,0.603l0.871,0.331l0.099,0.024l0.678,0.118l0.597-0.142  c0.001-0.001,0.001-0.001,0.002-0.001l0.017-0.004c0.008-0.002,0.015,0.005,0.023,0.004c0.008-0.001,0.012-0.009,0.02-0.009  l0.168-0.119c0.002-0.002,0.006-0.001,0.008-0.002c0.003-0.002,0.003-0.006,0.006-0.008l0.156-0.094  c0.013-0.008,0.027-0.001,0.041-0.006l0.311-0.492l0.145-0.691L52.82,61.422z"/><polygon fill="#000000" points="47.107,63.534 47.104,63.521 47.104,63.531 "/><path fill="#000000" d="M51.216,64.927c-0.014,0.004-0.027,0.005-0.041,0.005c-0.011,0-0.022-0.001-0.032-0.003l-0.922-0.153  l-0.478,0.644c0.004,0.001,0.005,0.006,0.009,0.008c0.013,0.006,0.021,0.017,0.033,0.025c0.019,0.014,0.032,0.027,0.045,0.046  c0.007,0.011,0.021,0.013,0.026,0.024l0.151,0.322l0.125-0.027c0.008-0.002,0.014,0.005,0.022,0.004  c0.008-0.001,0.013-0.009,0.021-0.009h0.188c0.019,0,0.03,0.015,0.047,0.02c0.019,0.005,0.037,0.002,0.054,0.011  c0.009,0.006,0.015,0.014,0.023,0.021c0.018,0.015,0.024,0.033,0.037,0.053c0.009,0.015,0.026,0.021,0.031,0.038l0.135,0.45  l0.725-1.52L51.216,64.927z"/><path fill="#000000" d="M51.133,66.506l1.64-2.192l-0.644,0.428c-0.02,0.014-0.042,0.015-0.064,0.02  c-0.008,0.003-0.012,0.012-0.021,0.013l-0.141,0.018L51.1,66.474c0.005,0.003,0.006,0.011,0.01,0.015  C51.117,66.495,51.126,66.498,51.133,66.506z"/><path fill="#000000" d="M47.506,64.686c-0.003,0.008,0.001,0.017-0.003,0.024l-0.012,0.02c0.014,0.004,0.026,0.014,0.04,0.02  c0.023,0.01,0.049,0.01,0.068,0.028c0.001,0.001,0.001,0.004,0.002,0.006c0.001,0.001,0.003,0.001,0.004,0.002l0.166,0.185  l0.138-0.092c0.017-0.012,0.038-0.006,0.056-0.012c0.02-0.006,0.035-0.022,0.055-0.022h0.219c0.005,0,0.008,0.005,0.014,0.006  c0.005,0,0.01-0.004,0.016-0.003c0.021,0.003,0.034,0.021,0.053,0.031c0.024,0.012,0.047,0.019,0.065,0.038  c0.003,0.004,0.009,0.003,0.013,0.008c0,0.001,0,0.001,0,0.002c0,0,0,0,0.001,0.001l0.128,0.177l0.119-0.093  c0.006-0.004,0.014-0.001,0.02-0.005c0.006-0.004,0.007-0.013,0.014-0.016c0.015-0.008,0.031,0,0.046-0.003  c0.016-0.004,0.026-0.019,0.043-0.019h0.188c0.01,0,0.017,0.01,0.026,0.011c0.026,0.004,0.044,0.015,0.067,0.027  c0.016,0.01,0.035,0.008,0.048,0.021c0.007,0.007,0.005,0.019,0.011,0.026c0.006,0.008,0.017,0.01,0.022,0.018l0.004,0.008  l0.424-0.583l-0.375-0.178c-0.004-0.002-0.004-0.007-0.008-0.009c-0.005-0.003-0.011-0.002-0.017-0.005l-1-0.656  c-0.006-0.004-0.006-0.013-0.012-0.017c-0.006-0.006-0.014-0.004-0.02-0.009l-0.059-0.059l-0.461,0.592l0.014,0.067  c0.003,0.017-0.008,0.029-0.009,0.046c0,0.017,0.01,0.03,0.006,0.046l-0.094,0.344C47.521,64.67,47.511,64.676,47.506,64.686z"/><path fill="#000000" d="M48.763,59.882c-0.019,0.023-0.043,0.034-0.07,0.048l-0.108,0.087c-0.019,0.029-0.041,0.049-0.072,0.066  l-0.103,0.103c-0.001,0.001-0.003,0.001-0.004,0.002c-0.002,0.001-0.001,0.005-0.003,0.007c-0.002,0.002-0.008,0.001-0.01,0.004  c-0.001,0-0.001,0.003-0.002,0.004l-1.077,0.83c0,0.001,0,0.001,0,0.002c0,0-0.001,0-0.001,0l-0.015,0.012  c-0.002,0.002-0.005,0.001-0.007,0.002c-0.002,0.002-0.002,0.005-0.004,0.006l-0.116,0.078c-0.019,0.023-0.043,0.035-0.071,0.048  l-0.077,0.058c-0.022,0.035-0.051,0.056-0.089,0.072l-0.048,0.04c-0.009,0.03-0.012,0.062-0.036,0.086  c-0.029,0.029-0.068,0.037-0.106,0.044l-0.043,0.043c-0.002,0.004-0.001,0.008-0.004,0.012c-0.005,0.004-0.013,0.002-0.018,0.006  c-0.002,0.002-0.002,0.005-0.004,0.006l-0.363,0.279l0.167,0.117c0.007,0.004,0.006,0.014,0.012,0.02  c0.007,0.005,0.016,0.003,0.021,0.01l0.344,0.375c0.002,0.002,0.001,0.006,0.003,0.008c0.002,0.003,0.006,0.002,0.008,0.005  l0.312,0.406c0.004,0.005,0.001,0.012,0.004,0.017c0.003,0.006,0.01,0.006,0.013,0.012l0.25,0.469c0.003,0.006,0,0.012,0.002,0.019  l0.38-0.267l0.113-0.112c0.002-0.003,0.007-0.001,0.009-0.004c0.002-0.002,0.001-0.006,0.004-0.009l0.188-0.156  c0.001-0.001,0.003,0,0.005-0.001c0.002-0.001,0.001-0.004,0.003-0.005l0.125-0.094l0.151-0.121c0,0,0.001,0,0.002,0  c0-0.001,0-0.001,0-0.002l1.122-0.872c0-0.001,0-0.001,0-0.001l0.156-0.125l0.156-0.125l0.156-0.125c0,0,0.001,0,0.002,0  c0-0.001,0-0.002,0.001-0.002l0.406-0.312c0,0,0,0,0,0l0.64-0.502v-0.182l-0.08-0.24l-0.142-0.285l-0.167-0.251l-0.253-0.225  l-0.229-0.172l-0.219-0.098h-0.018l-0.625,0.462c-0.024,0.038-0.056,0.061-0.099,0.076l-0.307,0.236  c-0.028,0.045-0.069,0.074-0.124,0.086L48.763,59.882z"/><path fill="#000000" d="M49.008,59.078c0.002-0.016,0.017-0.024,0.022-0.038c0.005-0.015,0-0.031,0.009-0.045l0.125-0.188  c0.004-0.006,0.012-0.006,0.017-0.011c0.004-0.006,0.002-0.015,0.008-0.02c0.002-0.003,0.006-0.002,0.009-0.004l0.001-0.002  c0.008-0.012,0.024-0.013,0.035-0.021c0.011-0.011,0.012-0.026,0.025-0.034l0.156-0.094c0.001,0,0.003,0,0.005,0l-0.025-0.002  l-0.277,0.025l-0.016,0.01l-0.117,0.188l-0.077,0.283l0.011,0.144l0.07-0.054l0.016-0.109c0-0.001-0.001-0.002-0.001-0.002  c0-0.002,0.001-0.003,0.001-0.005L49.008,59.078z"/><path fill="#000000" d="M50.967,61.264c-0.007,0.001-0.01,0.009-0.017,0.01l-0.25,0.031c-0.008,0.001-0.017,0.002-0.025,0.002  h-0.057l-0.061,0.046l0.301,0.051l0.252-0.051l0.056-0.027l0.106-0.149l0.046-0.166l-0.084,0.1c-0.007,0.009-0.02,0.007-0.028,0.013  c-0.009,0.01-0.011,0.023-0.022,0.031l-0.156,0.094C51.009,61.259,50.988,61.259,50.967,61.264z"/><polygon fill="#000000" points="45.926,61.604 46.004,61.554 46.252,61.214 46.115,60.952 45.708,61.505 "/><path fill="#000000" d="M21.889,19.511l-1.022,3.322l1.755-1.385l-0.728-1.863c-0.007-0.017,0.003-0.033,0.001-0.05  C21.895,19.526,21.889,19.52,21.889,19.511z"/><polygon fill="#000000" points="25.223,31.527 25.367,31.427 25.373,31.409 "/><polygon fill="#000000" points="16.755,35.451 17.882,35.202 17.437,34.914 "/><polygon fill="#000000" points="17.65,34.577 18.433,35.081 18.626,35.041 17.683,34.431 "/><polygon fill="#000000" points="22.367,31.897 22.305,31.946 22.367,31.899 "/><polygon fill="#000000" points="28.565,23.268 28.824,22.44 27.349,23.594 28.139,23.594 "/><polygon fill="#000000" points="21.222,28.505 21.059,28.015 20.375,28.554 20.529,29.051 "/><polygon fill="#000000" points="20.062,35.527 16.093,36.399 16.063,36.531 19.838,35.702 "/><polygon fill="#000000" points="15.699,36.323 15.074,35.912 15.049,36.071 15.667,36.47 "/><polygon fill="#000000" points="18.309,34.359 18.329,34.372 18.325,34.367 "/><polygon fill="#000000" points="22.938,21.713 22.931,21.713 22.352,22.171 "/><polygon fill="#000000" points="23.838,19.323 24.952,19.343 28.106,16.886 28.703,15.534 "/><path fill="#000000" d="M31.856,17.285l-0.534-0.229h-0.085c-0.021,0-0.042-0.003-0.063-0.011l-0.167-0.055l-0.579-0.059  l-0.771,0.115l-0.277,0.193l0.101-0.02c0.013-0.002,0.022,0.008,0.034,0.008s0.022-0.01,0.035-0.008l0.938,0.156  c0.008,0.002,0.012,0.01,0.02,0.013c0.008,0.002,0.016-0.003,0.024,0l0.795,0.329L31.856,17.285z"/><path fill="#000000" d="M29.96,18.812c0.012-0.017,0.013-0.038,0.03-0.052l0.978-0.758l-0.566-0.234l-0.88-0.146l-0.773,0.143  l-0.615,0.381l-4.491,3.524h0v0.001l-0.865,0.676l0.213-0.031c0.01-0.002,0.018,0.006,0.028,0.006s0.018-0.008,0.028-0.007  l0.938,0.125c0.01,0.001,0.016,0.012,0.025,0.015c0.01,0.002,0.019-0.004,0.029,0l1,0.438c0.006,0.003,0.007,0.011,0.013,0.014  c0.006,0.004,0.013,0,0.019,0.004l0.969,0.656c0.006,0.004,0.005,0.012,0.011,0.017s0.014,0.003,0.019,0.008l0.875,0.875  c0.005,0.005,0.003,0.012,0.007,0.017s0.012,0.004,0.015,0.01l0.75,1.062c0.002,0.004,0,0.009,0.003,0.014  c0.002,0.004,0.008,0.004,0.01,0.008l0.562,1.062c0.004,0.007-0.001,0.015,0.002,0.021c0.003,0.008,0.012,0.011,0.014,0.019  l0.312,1.125c0.002,0.007-0.003,0.014-0.002,0.021c0.001,0.008,0.009,0.013,0.009,0.021l0.048,0.792l0.021-0.11l-0.03-0.981  l-0.301-1.054l-0.545-1.061l-0.733-1.008l-0.461-0.492c-0.002-0.003-0.001-0.007-0.003-0.01c-0.002-0.002-0.006-0.002-0.008-0.004  c-0.014-0.019-0.01-0.041-0.017-0.062c-0.008-0.021-0.025-0.037-0.025-0.061c0-0.002,0.001-0.002,0.001-0.004  c0-0.004,0.002-0.007,0.002-0.012c0.002-0.023,0.019-0.042,0.029-0.064c0.011-0.021,0.012-0.047,0.029-0.062  c0.001-0.001,0-0.002,0.001-0.004c0.002-0.002,0.006,0,0.009-0.003c0.003-0.002,0.002-0.007,0.005-0.009l2.388-1.867l0.888-2.908  C29.928,18.839,29.948,18.829,29.96,18.812z"/><polygon fill="#000000" points="20.988,33.181 20.871,33.103 19.143,34.438 19.26,34.517 "/><polygon fill="#000000" points="21.123,32.591 21.086,32.765 21.32,32.921 21.459,32.81 "/><path fill="#000000" d="M21.712,23.187l0.183-0.027c0.01-0.002,0.018,0.006,0.028,0.006s0.018-0.009,0.028-0.007l0.969,0.125  c0.011,0.001,0.016,0.013,0.026,0.015c0.01,0.003,0.021-0.003,0.031,0.002l0.969,0.438c0.006,0.002,0.007,0.011,0.014,0.014  c0.006,0.004,0.014,0,0.02,0.005l0.969,0.688c0.004,0.003,0.004,0.01,0.008,0.013c0.004,0.004,0.011,0.002,0.015,0.006l0.906,0.875  c0.004,0.005,0.003,0.012,0.007,0.016s0.011,0.004,0.015,0.009l0.75,1c0.004,0.006,0.001,0.014,0.005,0.02  c0.004,0.006,0.012,0.007,0.015,0.013l0.531,1.094c0.003,0.006-0.001,0.013,0.001,0.019c0.003,0.007,0.01,0.009,0.012,0.016  l0.312,1.125c0.002,0.008-0.004,0.015-0.002,0.021c0.001,0.008,0.009,0.013,0.009,0.021l0.062,1.031c0,0.011-0.009,0.019-0.01,0.029  c-0.001,0.012,0.007,0.02,0.004,0.031l-0.181,0.722l0.275-0.22l0.401-0.602l0.203-0.811l-0.059-0.98l-0.302-1.084l-0.546-1.031  l-0.732-1.037l-0.851-0.852l-0.938-0.635l-0.956-0.419l-0.883-0.117l-0.771,0.114L21.712,23.187z"/><path fill="#000000" d="M31.385,13.202c0.008-0.014,0.009-0.028,0.02-0.04c0.01-0.011,0.023-0.014,0.035-0.022  c0.009-0.007,0.011-0.02,0.021-0.024l0.333-0.167l0.025-0.508c0-0.011,0.011-0.017,0.013-0.027c0.005-0.024,0.015-0.043,0.028-0.064  c0.01-0.015,0.012-0.031,0.025-0.043c0.007-0.008,0.018-0.006,0.025-0.012c0.01-0.007,0.012-0.02,0.023-0.025l0.284-0.131  l-0.109,0.008l-0.856,0.473l-8.932,6.961l0.677,1.733h0.451l2.042-1.603c-0.031,0.019-0.063,0.034-0.098,0.034h-0.375  c-0.001,0-0.002,0-0.003,0l-1.75-0.031c-0.06-0.001-0.109-0.03-0.145-0.073c-0.002-0.002-0.007-0.001-0.009-0.004  c-0.014-0.019-0.01-0.042-0.017-0.062c-0.008-0.022-0.026-0.039-0.025-0.064c0-0.004,0.005-0.006,0.005-0.01  c0.004-0.055,0.025-0.107,0.072-0.145l5.938-4.625c0,0,0,0,0.001,0l0.562-0.438c0.008-0.006,0.019-0.002,0.027-0.007  c0.024-0.015,0.046-0.018,0.074-0.021c0.026-0.004,0.047-0.006,0.073,0.002c0.01,0.002,0.02-0.004,0.03,0  c0.017,0.008,0.021,0.025,0.035,0.037c0.014,0.01,0.032,0.01,0.042,0.023c0.006,0.009,0.003,0.02,0.008,0.029  c0.013,0.022,0.017,0.045,0.02,0.071c0.003,0.026,0.005,0.048-0.002,0.073c-0.002,0.01,0.004,0.02,0,0.029l-1.125,2.562  c-0.01,0.024-0.031,0.04-0.048,0.057c-0.006,0.006-0.005,0.016-0.012,0.021l-0.322,0.251l0.394-0.289c0-0.001,0.001,0,0.002-0.001  c0.001,0,0-0.002,0.001-0.002l0.625-0.438c0.014-0.01,0.031-0.004,0.045-0.01c0.015-0.006,0.023-0.021,0.04-0.023l0.844-0.125  c0.009-0.002,0.016,0.006,0.024,0.006c0.01-0.001,0.015-0.008,0.025-0.008l0.288,0.029l-0.054-0.127  c-0.002-0.005,0.001-0.01,0-0.016c-0.005-0.014-0.005-0.025-0.007-0.039c-0.001-0.009-0.01-0.014-0.01-0.023  c0-0.014,0.012-0.023,0.015-0.036c0.003-0.019,0.003-0.034,0.011-0.05c0.002-0.006-0.001-0.012,0.002-0.018l0.238-0.396  l-0.135-0.512c-0.002-0.01,0.005-0.017,0.003-0.025c-0.003-0.027,0.003-0.049,0.01-0.074c0.007-0.025,0.012-0.047,0.028-0.068  c0.005-0.008,0.003-0.018,0.01-0.024l0.299-0.3l-0.104-0.52c-0.001-0.008,0.005-0.013,0.004-0.02  c-0.001-0.008-0.008-0.012-0.008-0.02c0-0.002,0.002-0.003,0.002-0.004c0-0.021,0.015-0.035,0.021-0.055  c0.008-0.023,0.012-0.045,0.027-0.063c0.005-0.007,0.006-0.015,0.012-0.021c0.001-0.002,0-0.004,0.002-0.005l0.301-0.276  l-0.053-0.557c0-0.004,0.003-0.006,0.003-0.01s-0.004-0.006-0.004-0.01c0-0.012,0.011-0.02,0.013-0.031  C31.366,13.24,31.373,13.224,31.385,13.202z"/><path fill="#000000" d="M25.277,30.712c-0.007,0.007-0.006,0.018-0.015,0.024l-0.454,0.333l-0.054,0.054l-0.125,0.125  c-0.004,0.004-0.01,0.003-0.014,0.006c-0.005,0.005-0.007,0.013-0.012,0.017l-0.21,0.148l-0.155,0.125l-0.185,0.154  c-0.001,0-0.003,0-0.005,0.001c-0.001,0.001-0.001,0.003-0.002,0.004l-1.438,1.094c-0.036,0.027-0.079,0.041-0.121,0.041  c-0.04,0-0.079-0.012-0.114-0.036l-0.4-0.276l-0.344-0.219c-0.012-0.008-0.013-0.022-0.022-0.032  c-0.008-0.008-0.021-0.004-0.027-0.014c-0.01-0.012-0.006-0.028-0.012-0.043c-0.011-0.023-0.019-0.044-0.02-0.07  c-0.001-0.027,0.004-0.047,0.013-0.072c0.005-0.016-0.001-0.031,0.008-0.045c0.007-0.011,0.021-0.012,0.029-0.021  c0.008-0.009,0.007-0.021,0.017-0.029l0.657-0.517l-0.915-0.602l-1.062,0.78l-5.026,3.919l0.161,0.105  c-0.006-0.018-0.005-0.033-0.006-0.052c-0.001-0.026,0.004-0.048,0.013-0.072c0.005-0.015-0.001-0.03,0.008-0.044  c0.007-0.011,0.021-0.012,0.029-0.021c0.008-0.009,0.007-0.022,0.017-0.03l1.938-1.5c0.002-0.002,0.005,0,0.007-0.002  c0.014-0.01,0.03-0.01,0.046-0.017c0.021-0.009,0.038-0.012,0.061-0.013c0.015-0.001,0.027-0.007,0.042-0.004  c0.003,0,0.006-0.003,0.01-0.002c0.013,0.003,0.018,0.016,0.03,0.021c0.012,0.004,0.024-0.001,0.036,0.006l0.639,0.414  c-0.009-0.012-0.005-0.027-0.011-0.041c-0.011-0.023-0.019-0.045-0.02-0.072c-0.001-0.025,0.004-0.046,0.013-0.07  c0.005-0.016-0.001-0.031,0.008-0.045c0.007-0.012,0.021-0.012,0.029-0.021c0.008-0.009,0.007-0.022,0.017-0.03l2.531-1.969  c0.003-0.002,0.007,0,0.01-0.002c0.012-0.009,0.027-0.008,0.041-0.014c0.022-0.009,0.04-0.015,0.063-0.016  c0.015-0.001,0.026-0.008,0.041-0.005c0.003,0.001,0.006-0.002,0.009-0.001c0.014,0.002,0.02,0.016,0.031,0.021  c0.012,0.004,0.026-0.001,0.037,0.006l0.812,0.531c0.01,0.007,0.01,0.02,0.018,0.027c0.009,0.008,0.021,0.006,0.029,0.016  c0.011,0.014,0.006,0.031,0.013,0.045c0.011,0.024,0.019,0.045,0.02,0.07c0.002,0.027-0.004,0.048-0.014,0.073  c-0.005,0.015,0.001,0.032-0.008,0.046c-0.005,0.008-0.017,0.006-0.024,0.013c-0.008,0.011-0.008,0.025-0.019,0.034l-0.469,0.375  c-0.001,0-0.001,0-0.002,0.001c-0.001,0,0,0.001-0.001,0.001l-2.062,1.594c-0.036,0.028-0.079,0.042-0.122,0.042  c-0.018,0-0.033-0.011-0.05-0.015l0.034,0.021c0,0,0,0,0,0.001c0.038,0.024,0.062,0.065,0.076,0.11  c0.002,0.006,0.009,0.01,0.01,0.016h0c0.004,0.023-0.009,0.041-0.012,0.063c-0.003,0.029,0.002,0.06-0.016,0.087h0  c-0.017,0.025-0.049,0.037-0.077,0.053l0.728-0.16l5.437-4.26L25.277,30.712z"/><polygon fill="#000000" points="12.841,33.5 12.893,33.54 14.023,32.649 13.23,32.114 "/><polygon fill="#000000" points="13.337,31.704 14.352,32.39 14.489,32.28 13.37,31.556 "/><path fill="#000000" d="M22.952,31.56l-0.051,0.283l0.544-0.428c0-0.006,0.004-0.008,0.005-0.012c0-0.007-0.005-0.012-0.004-0.018  l0.031-0.188c0-0.002,0.004-0.004,0.005-0.007c0-0.003-0.002-0.005-0.001-0.009l0.012-0.049L22.952,31.56z"/><polygon fill="#000000" points="16.268,30.029 16.185,29.976 14.426,31.314 14.54,31.391 "/><path fill="#000000" d="M24.987,28.4h-0.023l-0.136,0.11l0.096,0.018l0.28-0.051l0.04-0.02l0.087-0.175l0.069-0.229  c-0.001,0-0.002,0-0.003,0l-0.088,0.133c-0.005,0.008-0.017,0.005-0.023,0.012c-0.008,0.01-0.007,0.025-0.018,0.033l-0.156,0.125  C25.075,28.386,25.031,28.4,24.987,28.4z"/><polygon fill="#000000" points="14.541,33.286 13.142,34.372 13.14,34.386 "/><polygon fill="#000000" points="24.665,30.679 24.795,30.583 24.528,30.405 24.493,30.572 "/><polygon fill="#000000" points="22.703,29.54 22.702,29.536 22.7,29.536 21.945,28.484 21.204,29.051 22.805,31.167 23.513,30.609   "/><path fill="#000000" d="M24.263,29.317c-0.001-0.001,0-0.003-0.001-0.004c0-0.002-0.002-0.001-0.003-0.002l-0.058-0.087l-0.075-0.1  c-0.001-0.001-0.002-0.001-0.002-0.001c-0.001-0.001,0-0.003-0.001-0.004l-0.014-0.019c-0.001-0.002,0-0.005-0.002-0.007  c-0.001-0.002-0.003-0.001-0.004-0.002l-0.12-0.181l-0.062-0.083l-0.78,0.625l0.636,0.84l0.497-0.378  c0.002-0.002,0.006-0.001,0.008-0.002c0.012-0.009,0.027-0.008,0.041-0.013c0.023-0.01,0.042-0.016,0.066-0.016  c0.013,0,0.025-0.007,0.038-0.005c0.003,0.001,0.005-0.002,0.008-0.001c0.014,0.002,0.02,0.016,0.032,0.021  c0.012,0.005,0.026,0,0.038,0.008l0.366,0.243L24.263,29.317z"/><path fill="#000000" d="M19.395,30.085c-0.008,0.012-0.005,0.027-0.016,0.038c-0.003,0.003-0.007,0.001-0.01,0.004  c-0.036,0.033-0.081,0.055-0.132,0.055c-0.013,0-0.026-0.001-0.039-0.004c-0.007-0.001-0.011-0.009-0.018-0.012l-0.257,0.196  l0.668,0.876l0.374-0.265c0.011-0.007,0.023-0.002,0.035-0.008c0.011-0.005,0.016-0.018,0.028-0.021  c0.016-0.004,0.029,0.007,0.044,0.006c0.027-0.001,0.048,0,0.073,0.01c0.025,0.009,0.042,0.021,0.062,0.039  c0.011,0.01,0.028,0.01,0.037,0.023c0.007,0.011,0.002,0.023,0.008,0.035c0.005,0.011,0.018,0.016,0.021,0.027l0.017,0.062  l0.746-0.549v-0.055c0-0.021,0.017-0.035,0.022-0.055c0.006-0.019,0-0.039,0.011-0.057c0.004-0.006,0.012-0.006,0.017-0.011  c0.017-0.021,0.039-0.03,0.063-0.042c0.022-0.012,0.041-0.025,0.066-0.027c0.007-0.002,0.012-0.009,0.02-0.009  c0.021,0,0.035,0.017,0.055,0.022c0.019,0.006,0.039,0,0.056,0.012l0.094,0.062c0,0,0,0,0,0l0.621,0.408l-1.177-1.557l-0.341,0.256  c-0.012,0.009-0.027,0.008-0.04,0.014c-0.009,0.004-0.012,0.014-0.021,0.018c-0.02,0.006-0.04,0.009-0.059,0.009  c-0.055,0-0.101-0.028-0.139-0.067c-0.005-0.006-0.014-0.004-0.019-0.01c0,0,0-0.001,0-0.002c0,0-0.002,0-0.002-0.001  c-0.006-0.009-0.002-0.019-0.007-0.028c-0.007-0.012-0.02-0.02-0.024-0.033l-0.243-0.783l-1.493-0.186l0.976,0.65  c0.007,0.004,0.007,0.014,0.013,0.02c0.005,0.004,0.013,0.002,0.017,0.006c0.003,0.004,0.001,0.008,0.004,0.011  c0.003,0.004,0.01,0.003,0.013,0.007c0.001,0.002,0,0.004,0.001,0.006c0.009,0.012,0.007,0.029,0.013,0.043  c0.008,0.02,0.018,0.033,0.02,0.054c0.001,0.008,0.009,0.012,0.009,0.021c0,0.006-0.005,0.009-0.006,0.014  c0,0.006,0.001,0.011,0,0.016c0,0.002,0.001,0.004,0.001,0.006l-0.094,0.531c0,0-0.001,0-0.001,0.002c0,0,0,0.001,0,0.002  l-0.031,0.156C19.428,30.047,19.409,30.063,19.395,30.085z"/><path fill="#000000" d="M23.06,26.241l0.015-0.059c0.002-0.01,0.013-0.013,0.016-0.021c0.004-0.01-0.001-0.02,0.004-0.029  l0.125-0.219c0.011-0.018,0.032-0.021,0.046-0.035c0.014-0.014,0.019-0.035,0.038-0.044l0.188-0.094  c0.006-0.003,0.013,0.001,0.019-0.001c0.006-0.003,0.008-0.01,0.015-0.012l-0.068-0.012l-0.248,0.045l-0.045,0.045l-0.12,0.145  l-0.075,0.299l0.004,0.06L23.06,26.241z"/><path fill="#000000" d="M22.83,26.933l-0.031,0.024c-0.008,0.012-0.005,0.026-0.016,0.036c-0.019,0.02-0.043,0.019-0.064,0.028  l-0.052,0.042c-0.023,0.077-0.081,0.136-0.164,0.143c-0.03,0.073-0.088,0.132-0.172,0.132c-0.004,0-0.007-0.005-0.011-0.005  l-0.204,0.153c-0.025,0.073-0.076,0.133-0.16,0.133h-0.011l-0.473,0.37l0.089,0.268l0.31-0.219l0.001-0.002  c0.014-0.009,0.03-0.004,0.045-0.01c0.009-0.003,0.019-0.004,0.028-0.006c0.025-0.006,0.047-0.021,0.072-0.018  c0.001,0.001,0.003,0.001,0.004,0.001c0.015,0.003,0.024,0.018,0.038,0.022c0.008,0.004,0.015,0.01,0.022,0.015  c0.022,0.013,0.049,0.017,0.065,0.038c0,0,0,0.002,0,0.002c0.001,0.002,0.003,0.002,0.003,0.002l0.752,1.048l0.929-0.743  c0.001-0.001,0.002,0,0.003-0.001s0.001-0.002,0.002-0.003c0.024-0.019,0.055-0.016,0.083-0.021c0.021-0.004,0.04-0.019,0.062-0.016  c0.027,0.003,0.047,0.024,0.07,0.039c0.021,0.012,0.046,0.014,0.062,0.033c0.001,0.001,0,0.002,0.001,0.003s0.002,0.001,0.003,0.002  l0.063,0.085l0.047-0.031c0.006-0.009,0.002-0.021,0.01-0.028c0.025-0.026,0.057-0.032,0.087-0.044l0.295-0.24  c0.02-0.055,0.057-0.104,0.117-0.123l0.059-0.02l0.335-0.279l0.03-0.119l-0.025-0.228l-0.083-0.279l-0.142-0.284l-0.164-0.246  L24.49,26.39c-0.001-0.002-0.001-0.004-0.002-0.006c-0.002-0.001-0.005,0-0.007-0.002l-0.219-0.191l-0.243-0.081l-0.112-0.032  l-0.498,0.398c-0.01,0.03-0.012,0.064-0.036,0.088c-0.03,0.03-0.08,0.051-0.14,0.051L23.01,26.79  c-0.01,0.029-0.012,0.061-0.036,0.084c-0.04,0.039-0.09,0.06-0.14,0.06C22.832,26.934,22.832,26.933,22.83,26.933z"/><path fill="#000000" d="M81.639,25.8c0.003-0.004,0.009-0.003,0.012-0.007c0.004-0.004,0.002-0.009,0.006-0.013l0.703-0.729  L43.13,12.614l-0.378-0.054l-0.374,0.106l-0.393,0.225l-0.342,0.342l-0.288,0.461l-0.208,0.564l-1.401,5.572l-0.089,0.568  l0.029,0.55l0.115,0.432l0.197,0.394l0.24,0.266l0.359,0.193l35.378,11.171l0.231-0.309l-0.503-0.175c0,0,0,0-0.001,0l-2.933-0.937  l0,0l-2.217-0.687v-0.001c0,0,0,0-0.001,0l-2.06-0.655c-0.001,0-0.002,0-0.002,0l-0.594-0.188c-0.001,0-0.001-0.001-0.001-0.001  l-0.31-0.093c-0.001,0-0.002,0-0.003,0l-6.719-2.125c0,0,0-0.001-0.001-0.001l0,0l-2.123-0.687l-2.281-0.719  c-0.001,0-0.001-0.001-0.001-0.001l-3.622-1.155c-0.001,0-0.002,0-0.002,0l-5.221-1.647h-0.005c-0.005,0-0.008-0.005-0.013-0.005  l-0.012-0.004c-0.001-0.001-0.002-0.003-0.003-0.004c-0.017-0.003-0.029-0.012-0.044-0.02c-0.022-0.01-0.049-0.012-0.066-0.028  c-0.018-0.019-0.019-0.046-0.029-0.07c-0.01-0.023-0.029-0.042-0.029-0.069c0-0.001,0.001-0.002,0.001-0.002  c0-0.001-0.001-0.002-0.001-0.002c0-0.02,0.017-0.033,0.022-0.051c0.01-0.031,0.017-0.065,0.04-0.088  c0.018-0.018,0.043-0.018,0.064-0.027c0.003-0.001,0.005-0.002,0.007-0.003c0.005-0.003,0.01-0.004,0.016-0.007  c0.018-0.005,0.031-0.021,0.05-0.021c0.001,0,0.001,0.001,0.002,0.001c0.001,0,0.001-0.001,0.002-0.001l0.026,0.001  c0,0,0-0.001,0.001-0.001c0.001,0,0.003,0,0.004,0l4.469,0.094h0.276H52.8c0.012,0,0.019,0.011,0.03,0.013  c0.01,0.002,0.02-0.006,0.03-0.003l19.25,6.125c0.01,0.003,0.013,0.014,0.021,0.019c0.009,0.004,0.02-0.001,0.028,0.005l4.316,2.857  l1.582-2.109L77.9,30.58c-0.001-0.001-0.001-0.002-0.003-0.003c-0.003,0-0.005,0-0.008-0.001l-0.524-0.185l0,0l-3.375-1.062  c0,0-0.001,0-0.001-0.001l-2.499-0.78c-0.002-0.001-0.002-0.003-0.003-0.003c-0.003-0.001-0.007-0.001-0.009-0.002l-0.397-0.153  l-1.026-0.311c-0.001,0-0.001,0-0.002-0.001c0,0,0,0-0.001,0l-9.747-3.093c-0.001,0-0.002,0-0.002,0l-7.344-2.312  c-0.001,0-0.001-0.001-0.001-0.001s0,0-0.001,0l-1.656-0.531V22.14l-1.216-0.373c0,0,0,0,0-0.001c-0.001,0-0.001,0-0.002,0  l-4.212-1.342c0,0-0.001,0-0.001,0l-0.438-0.125c-0.001-0.001-0.002-0.002-0.003-0.003c-0.003-0.001-0.007,0-0.01-0.002  l-0.338-0.123c0,0-0.001,0-0.001,0l-0.469-0.156c0,0,0,0,0,0l-0.491-0.153c0,0,0,0,0,0l-0.656-0.188  c-0.028-0.008-0.042-0.032-0.062-0.05c-0.018-0.016-0.042-0.022-0.054-0.043c-0.014-0.023-0.009-0.053-0.012-0.08  c-0.003-0.023-0.017-0.044-0.01-0.068l0.001-0.006c0,0,0-0.001,0-0.001l0.686-2.743c0-0.002,0.004-0.003,0.004-0.006  c0.001-0.003-0.001-0.006,0-0.009l0.031-0.094c0.008-0.023,0.03-0.033,0.045-0.052c0.018-0.022,0.03-0.051,0.055-0.062  c0.018-0.01,0.039-0.002,0.058-0.006c0.031-0.005,0.061-0.018,0.093-0.007l0.002,0.001c0,0,0,0,0.001,0s0,0,0.001,0L80.161,27.81  L81.639,25.8z"/><path fill="#000000" d="M45.218,18.173l-0.171,1.1l0.111-0.018l0.906-0.302l0.906-0.513l0.553-0.415l-0.864-0.268l-0.337,0.155  c-0.002,0.001-0.005,0-0.007,0.002c-0.001,0-0.001,0.002-0.002,0.002l-0.469,0.188c-0.013,0.006-0.026,0.006-0.039,0.008  c-0.004,0-0.005,0.004-0.009,0.005l-0.469,0.062c-0.009,0.001-0.017,0.002-0.026,0.002h0c-0.008,0-0.017-0.001-0.025-0.002  L45.218,18.173z"/><path fill="#000000" d="M70.875,25.845c0.008,0,0.011,0.005,0.018,0.005c0.006,0.001,0.01-0.006,0.016-0.005l0.395,0.03H71.8  c0.005,0,0.007,0.005,0.012,0.005s0.007-0.004,0.012-0.004l0.531,0.062l0.416,0.049l-0.563-0.181h-0.313  c-0.007,0-0.013-0.004-0.019-0.005c-0.005,0-0.008,0.005-0.012,0.005c-0.009,0-0.018-0.001-0.025-0.002l-0.484-0.061h-0.429h-0.128  c0.002,0.028,0.015,0.054,0.006,0.082c-0.004,0.011-0.016,0.017-0.021,0.026L70.875,25.845z"/><path fill="#000000" d="M78.129,30.229l0.138,0.039c0.004-0.029,0.017-0.054,0.032-0.077c-0.044-0.036-0.074-0.087-0.074-0.147  v-0.175h-0.092l0.021,0.146c0.008,0.06-0.014,0.112-0.049,0.155C78.119,30.187,78.121,30.209,78.129,30.229z"/><path fill="#000000" d="M70.55,26.275h-0.066l-0.003,0.016c0.004-0.001,0.008,0.002,0.012,0.001c0.01-0.001,0.016-0.011,0.026-0.011  h0.312h0.406c0.005,0,0.008,0.005,0.013,0.005c0.004,0.001,0.008-0.004,0.012-0.003l0.498,0.062h0.001l0.526,0.062l0.524,0.031  c0.005,0,0.008,0.005,0.013,0.006c0.006,0,0.01-0.004,0.015-0.003l0.466,0.093l0.4,0.062c0.009,0.001,0.013,0.01,0.021,0.012  s0.016-0.003,0.023,0l0.108,0.043c0.001-0.012,0.01-0.021,0.012-0.033l-0.171-0.034c-0.001,0-0.001-0.001-0.001-0.001  c-0.002,0-0.004,0-0.005,0l-0.399-0.093h-0.001l-0.462-0.093l-0.522-0.061l-0.519-0.062H71.3c-0.005,0-0.011-0.001-0.015-0.001  l-0.389-0.029l-0.328,0.029C70.562,26.274,70.556,26.275,70.55,26.275z"/><path fill="#000000" d="M78.464,29.379c0.002,0.001,0.003,0.003,0.005,0.003s0.003-0.001,0.004,0l0.125,0.031  c0.013,0.002,0.018,0.016,0.028,0.02c0.011,0.006,0.024,0,0.034,0.008l0.044,0.028h0.214l0.899-1.226l-5.28-1.684l-0.007,0.066  c0,0.002-0.002,0.004-0.003,0.006c0,0,0.002,0.002,0.002,0.003l-0.062,0.435v0.001l-0.062,0.46l-0.03,0.525  c-0.001,0.003-0.004,0.004-0.004,0.008c0,0.002,0.002,0.004,0.002,0.008l-0.094,0.686l-0.018,0.238l3.076,0.968l0.074-0.118  c0.004-0.008,0.014-0.008,0.018-0.014c0.006-0.007,0.004-0.016,0.01-0.022l0.219-0.219c0.006-0.005,0.014-0.003,0.02-0.008  s0.005-0.013,0.012-0.017l0.094-0.062c0.014-0.01,0.029-0.004,0.044-0.01l0.081-0.053c0.006-0.005,0.014-0.002,0.021-0.005  c0.006-0.003,0.008-0.012,0.015-0.015l0.156-0.062c0.013-0.005,0.024,0.003,0.038,0c0.014-0.002,0.021-0.015,0.036-0.015h0.094  c0.007,0,0.012,0.007,0.019,0.008c0.008,0.001,0.014-0.005,0.021-0.004L78.464,29.379z"/><path fill="#000000" d="M77.737,30.077l-0.011,0.018l0.055,0.02c-0.006-0.016-0.021-0.025-0.023-0.042l-0.002-0.015L77.737,30.077z"/><path fill="#000000" d="M71.182,28.003l0.383,0.029c0.002,0,0.003,0.002,0.004,0.002c0.002,0,0.003-0.002,0.005-0.002l0.531,0.062  l0.531,0.062c0.001,0,0.001,0.002,0.001,0.002c0.001,0,0.002-0.001,0.002-0.001l0.469,0.062c0.004,0.001,0.006,0.005,0.009,0.005  c0.003,0.001,0.007-0.002,0.01-0.002l0.32,0.074c-0.01-0.006-0.022-0.006-0.031-0.014c-0.001,0-0.001,0-0.001,0  c-0.004-0.004-0.002-0.008-0.005-0.012c-0.03-0.031-0.054-0.068-0.059-0.115c-0.001-0.006,0.005-0.011,0.005-0.018  c0-0.002-0.002-0.004-0.002-0.006c0-0.012,0.012-0.021,0.015-0.034c0.009-0.036,0.017-0.07,0.041-0.097  c0.003-0.002,0.002-0.008,0.005-0.01c0.011-0.011,0.029-0.008,0.042-0.016l-0.312-0.049c0,0,0,0-0.001,0c-0.002,0-0.003,0-0.005,0  l-0.494-0.094l-0.519-0.061l-0.495-0.031H71.63c-0.004,0-0.008,0-0.011-0.001l-0.484-0.061h-0.298  c0.03,0.044,0.046,0.099,0.033,0.155c-0.005,0.025-0.024,0.04-0.037,0.061L71.182,28.003z"/><path fill="#000000" d="M68.729,24.716c-0.027,0.014-0.055,0.028-0.085,0.028h-0.406c-0.001,0-0.003,0-0.004,0l-4.781-0.094  c-0.001,0-0.001-0.001-0.002-0.001c-0.019,0-0.036-0.003-0.056-0.009l-2.403-0.769c0.005,0.008,0.003,0.016,0.007,0.023  c0.013,0.023,0.02,0.045,0.021,0.071s-0.002,0.047-0.01,0.072c-0.004,0.015,0.002,0.029-0.006,0.042l-0.344,0.598l9.252,2.936  v-0.039c0-0.004,0.005-0.008,0.005-0.012s-0.004-0.008-0.003-0.012l0.062-0.531c0-0.001,0.001-0.002,0.001-0.003  s-0.001-0.001-0.001-0.002l0.062-0.435V26.58l0.062-0.469c0,0,0,0,0-0.001l0.062-0.49l0.031-0.344c0-0.002,0.002-0.003,0.002-0.004  c0-0.002-0.001-0.002-0.001-0.004l0.011-0.084L68.729,24.716z"/><path fill="#000000" d="M70.479,26.728c-0.005,0.01-0.015,0.014-0.021,0.022h0.312h0.438c0.005,0,0.008,0.005,0.013,0.005  c0.004,0.001,0.008-0.004,0.012-0.003l0.489,0.062l0.499,0.031c0.002,0,0.003,0.002,0.005,0.002c0.003,0,0.004-0.002,0.006-0.002  l0.531,0.062c0.003,0.001,0.004,0.004,0.007,0.004c0.002,0,0.004-0.002,0.006-0.002l0.5,0.094l0.4,0.062  c0.006,0,0.008,0.006,0.013,0.008c0.005,0,0.01-0.004,0.015-0.002l0.085,0.025c0.001-0.014,0.013-0.023,0.016-0.037l-0.179-0.071  l-0.385-0.06h-0.001c-0.003,0-0.005,0-0.008-0.001l-0.456-0.091l-0.517-0.031h-0.001c-0.004,0-0.007,0-0.011,0l-0.531-0.062  l-0.001-0.001l0,0l-0.484-0.061h-0.397h-0.284L70.48,26.7C70.478,26.71,70.482,26.718,70.479,26.728z"/><path fill="#000000" d="M73.889,28.417c0.002,0,0.004-0.001,0.006,0l0.026,0.008l0.021-0.15c-0.021,0.01-0.035,0.029-0.059,0.031  l-0.289,0.029l0.29,0.078C73.886,28.414,73.887,28.417,73.889,28.417z"/><path fill="#000000" d="M45.304,17.779l0.414-0.056l0.378-0.15l-0.671-0.225h-0.001c-0.01,0.009-0.022,0.009-0.033,0.015  c-0.016,0.009-0.024,0.026-0.042,0.03l-0.056,0.015l0.02,0.311c0,0.013-0.01,0.021-0.011,0.033  C45.3,17.761,45.306,17.77,45.304,17.779z"/><path fill="#000000" d="M73.787,28.803l-0.02-0.007l-0.329-0.09l-0.373-0.086l0.743,0.232  C73.801,28.835,73.788,28.823,73.787,28.803z"/><path fill="#000000" d="M73.206,27.397c-0.002,0-0.003,0-0.005,0l-0.31-0.059c-0.007,0.01-0.008,0.022-0.016,0.03  c0.016,0.034,0.032,0.068,0.027,0.108l0.308,0.057l0.218,0.034c0.001-0.006,0.005-0.009,0.007-0.015  c0.009-0.029,0.014-0.059,0.034-0.08c0.003-0.002,0.001-0.008,0.004-0.01c0.011-0.012,0.03-0.01,0.045-0.018  c0.001,0,0.001,0,0.001,0L73.206,27.397C73.207,27.397,73.207,27.397,73.206,27.397z"/><path fill="#000000" d="M70.379,27.248c-0.008,0.008-0.02,0.005-0.028,0.012l-0.004,0.036l0.022-0.007  c0.011-0.003,0.02,0.005,0.029,0.003c0.01-0.001,0.016-0.011,0.026-0.011h0.312h0.406c0.005,0,0.008,0.005,0.013,0.005  c0.004,0.001,0.008-0.004,0.012-0.003l0.489,0.062l0.499,0.031c0.002,0,0.003,0.002,0.005,0.002c0.003,0,0.004-0.002,0.006-0.002  l0.013,0.002c0.009-0.041,0.021-0.078,0.052-0.105c-0.007-0.01-0.013-0.016-0.018-0.026l-0.025-0.003l-0.495-0.031h-0.001  c-0.004,0-0.008,0-0.011-0.001l-0.484-0.061h-0.429h-0.284l-0.074,0.021C70.4,27.198,70.4,27.228,70.379,27.248z"/><polygon fill="#000000" points="50.903,68.374 50.547,68.97 50.339,69.651 50.219,70.432 50.249,71.206 50.399,71.96 50.64,72.649   53.192,77.444 53.516,77.973 53.931,78.306 54.361,78.467 54.779,78.44 55.211,78.224 55.617,77.818 56.92,76.05 56.922,76.049   56.923,76.047 57.452,75.362 57.452,75.361 58.296,74.236 58.297,74.236 72.357,55.269 72.371,55.261 72.377,55.246 72.461,55.162   72.762,54.74 72.776,54.731 72.783,54.715 72.867,54.631 73.732,53.456 74.135,52.868 74.139,52.866 74.14,52.861 77.796,47.986   77.797,47.986 87.069,35.497 87.74,34.308 88.198,32.874 88.443,31.312 88.382,29.694 88.076,28.162 87.529,26.796 86.805,25.739   85.949,25.002 85.023,24.684 84.072,24.741 83.17,25.207 82.326,26.052 "/><path fill="#000000" d="M44.881,17.244c0-0.003,0.002-0.004,0.002-0.007c0-0.002-0.003-0.004-0.003-0.006v-0.062l-0.089-0.022  l0.021,0.515c0,0.008-0.007,0.013-0.007,0.02c0,0.008,0.006,0.014,0.005,0.021l-0.25,1.469c-0.001,0.008-0.008,0.011-0.01,0.018  c-0.001,0.005,0.003,0.01,0.001,0.016l-0.119,0.336l0.126,0.039l0.049-0.122l0.027-0.136l0.218-1.402  c0-0.004,0.006-0.006,0.007-0.011s-0.003-0.009-0.001-0.013l0.053-0.186L44.881,17.244z"/><path fill="#000000" d="M48.893,13.313c-0.01-0.005-0.011-0.018-0.02-0.023l-0.162-0.028l0.204,0.063L48.893,13.313z"/><path fill="#000000" d="M42.782,10.268c-0.001,0.003,0,0.007-0.001,0.009L42.5,10.714c-0.004,0.006-0.012,0.004-0.017,0.01  c-0.006,0.008-0.003,0.018-0.01,0.024l-0.346,0.345l0.065,0.02c0.008-0.002,0.015-0.008,0.023-0.01l0.274-0.251l0.263-0.409  l0.171-0.341l0.045-0.198l-0.177,0.355C42.789,10.263,42.785,10.264,42.782,10.268z"/><path fill="#000000" d="M43.093,10.651l-0.281,0.438c-0.004,0.008-0.015,0.005-0.02,0.012c-0.007,0.008-0.005,0.021-0.013,0.028  l-0.134,0.123l0.021,0.005c0.003,0.002,0.004,0.006,0.007,0.006l0.099-0.099l0.26-0.376l0.071-0.154  c-0.002,0.004-0.006,0.006-0.008,0.009C43.093,10.646,43.095,10.649,43.093,10.651z"/><path fill="#000000" d="M42.104,9.475c0,0.001,0,0.002,0,0.003c-0.002,0.004-0.008,0.006-0.01,0.011  c-0.002,0.003,0,0.007-0.002,0.011l-0.125,0.188l-0.125,0.188c-0.003,0.005-0.012,0.003-0.016,0.008  c-0.005,0.007-0.003,0.016-0.009,0.022c-0.005,0.005-0.014,0.003-0.019,0.008c-0.004,0.005-0.002,0.013-0.006,0.017l-0.343,0.374  l0.328-0.3l0.289-0.376l0.167-0.362l0.017-0.103l-0.143,0.31C42.106,9.474,42.104,9.474,42.104,9.475z"/><polygon fill="#000000" points="43.481,11.591 43.588,11.627 43.516,11.542 "/><path fill="#000000" d="M41.416,10.331l-0.438,0.312c-0.003,0.003-0.008,0.002-0.011,0.004c-0.003,0.002-0.003,0.006-0.006,0.008  l-0.438,0.25c-0.008,0.004-0.017,0.004-0.025,0.007c-0.004,0.002-0.006,0.008-0.011,0.009l-0.188,0.062  c-0.007,0.002-0.013,0.002-0.02,0.004c-0.002,0-0.003,0.002-0.005,0.003c-0.009,0.002-0.019,0.003-0.028,0.003l-0.074,0.031  c-0.003,0.006-0.003,0.012-0.007,0.018l0.043-0.006l0.03-0.015c0.004-0.003,0.009,0.001,0.014-0.001s0.006-0.008,0.012-0.01  l0.159-0.053c0.011-0.01,0.025-0.01,0.037-0.016c0.018-0.01,0.027-0.028,0.048-0.032l0.124-0.024l0.393-0.225l0.393-0.332  l0.026-0.025c-0.005,0.006-0.013,0.004-0.019,0.01C41.422,10.317,41.422,10.327,41.416,10.331z"/><path fill="#000000" d="M44.143,12.233l-0.907-0.302h-0.124c-0.011,0-0.022-0.001-0.033-0.003l-0.188-0.031h0l-0.177-0.025  l-0.497,0.11l-0.479,0.282l-0.435,0.463l-0.354,0.59l-0.241,0.662l-1.432,5.668l-0.121,0.722l0.029,0.706l0.175,0.643l0.289,0.52  l0.368,0.397l0.456,0.257l35.062,11.105l0.187-0.253L40.458,22.61c-0.004-0.002-0.005-0.008-0.01-0.009  c-0.008-0.003-0.017-0.002-0.024-0.007l-0.406-0.219c-0.012-0.006-0.014-0.021-0.023-0.028c-0.009-0.007-0.022-0.005-0.03-0.014  l-0.281-0.312c-0.005-0.005-0.002-0.013-0.007-0.019c-0.007-0.01-0.018-0.015-0.023-0.025l-0.219-0.438  c-0.003-0.006,0.001-0.012-0.001-0.018c-0.003-0.008-0.012-0.012-0.014-0.021l-0.125-0.469c-0.002-0.007,0.004-0.014,0.003-0.021  c-0.001-0.008-0.009-0.013-0.009-0.021l-0.031-0.594c0-0.008,0.007-0.013,0.007-0.021c0-0.008-0.007-0.014-0.005-0.021l0.094-0.594  c0-0.004,0.004-0.005,0.005-0.009c0-0.003-0.002-0.006-0.001-0.009l1.406-5.594c0.001-0.004,0.005-0.006,0.007-0.01  c0.001-0.004-0.002-0.007,0-0.011l0.219-0.594c0.003-0.007,0.011-0.009,0.015-0.017c0.003-0.006,0-0.014,0.003-0.02l0.312-0.5  c0.004-0.008,0.014-0.008,0.019-0.014c0.005-0.007,0.003-0.016,0.009-0.022l0.375-0.375c0.007-0.007,0.018-0.005,0.026-0.011  c0.007-0.006,0.008-0.017,0.017-0.021l0.438-0.25c0.008-0.004,0.017,0,0.024-0.003c0.008-0.003,0.011-0.013,0.02-0.016l0.438-0.125  c0.015-0.005,0.028,0.006,0.042,0.005s0.026-0.013,0.041-0.01l0.438,0.062c0.006,0,0.009,0.007,0.015,0.008  c0.006,0.002,0.012-0.003,0.018-0.001l39.546,12.537l0.354-0.185l-2.644-0.846l-0.24-0.061c-0.009-0.002-0.012-0.011-0.02-0.014  c-0.015-0.006-0.03-0.004-0.043-0.014l-0.066-0.043l-0.215-0.055c-0.002,0-0.002-0.001-0.002-0.001  c-0.004-0.001-0.007-0.001-0.01-0.001l-0.498-0.156l-0.115-0.029c-0.005,0-0.007-0.006-0.011-0.008  c-0.011-0.003-0.021-0.002-0.03-0.007l-0.05-0.024l-0.415-0.148l-0.142-0.028c-0.003-0.001-0.004-0.004-0.007-0.005  c-0.008-0.002-0.016-0.001-0.024-0.004l-0.243-0.092l-0.184-0.052h-0.034c-0.021,0-0.042-0.003-0.063-0.011l-0.094-0.031  c0,0,0,0-0.001,0l-24.868-7.904l-0.623-0.188c0,0,0,0-0.001,0l-1.062-0.312c-0.001,0-0.001,0-0.001,0  c-0.002-0.001-0.004-0.001-0.006-0.002l-0.646-0.215l-0.143-0.028c-0.005-0.001-0.008-0.007-0.013-0.009  c-0.013-0.004-0.025-0.002-0.038-0.009l-0.107-0.054l-0.325-0.088c-0.001-0.001-0.001-0.002-0.002-0.002  c-0.003-0.001-0.006,0-0.009-0.002l-0.375-0.125l-0.094-0.031l-2.154-0.677h-0.032c-0.021,0-0.041-0.003-0.062-0.01l-3.281-1.062  C44.144,12.233,44.143,12.233,44.143,12.233z"/><path fill="#000000" d="M43.066,11.436L43,11.501l0.012,0.012l0.031,0.004l0.009-0.009l0.254-0.366  c0.003-0.01-0.003-0.021,0.002-0.031l0.036-0.07l-0.255,0.367c-0.003,0.006-0.011,0.004-0.015,0.008  C43.07,11.421,43.072,11.431,43.066,11.436z"/><path fill="#000000" d="M42.662,9.244h-0.021l-0.019,0.114c-0.002,0.01-0.012,0.016-0.015,0.025  c-0.002,0.008,0.003,0.018-0.001,0.025l-0.188,0.406c-0.004,0.009-0.013,0.013-0.019,0.021c-0.003,0.005,0,0.012-0.004,0.017  l-0.312,0.406c-0.003,0.005-0.011,0.003-0.015,0.007c-0.005,0.006-0.003,0.014-0.008,0.019l-0.375,0.344  c-0.001,0.001-0.003,0.001-0.004,0.001c-0.001,0.002,0,0.004-0.002,0.004l-0.11,0.094c0.002,0.006,0.002,0.012,0.003,0.018  c0.001,0.004,0.004,0.006,0.005,0.011c0.017,0.009,0.037,0.007,0.052,0.021c0.04,0.04,0.058,0.093,0.057,0.146l0.108-0.094  c0.013-0.01,0.03-0.007,0.045-0.014l0.335-0.336l0.265-0.412l0.172-0.344l0.064-0.258c-0.022-0.033-0.045-0.066-0.045-0.109  c0-0.029,0.02-0.051,0.031-0.075V9.244z"/><polygon fill="#000000" points="32.72,11.369 32.583,11.392 32.736,11.369 "/><path fill="#000000" d="M32.375,13.085c0,0.01-0.01,0.016-0.012,0.025c-0.004,0.025-0.015,0.042-0.029,0.062  c-0.009,0.015-0.009,0.033-0.021,0.045c-0.008,0.008-0.021,0.008-0.03,0.014c-0.008,0.006-0.01,0.018-0.019,0.022l-0.315,0.157  l0.05,0.52c0,0.004-0.003,0.006-0.003,0.01c0.001,0.027-0.014,0.049-0.023,0.074c-0.009,0.023-0.011,0.049-0.028,0.067  c-0.002,0.003-0.001,0.007-0.004,0.01l-0.272,0.272l0.079,0.525c0.001,0.005-0.004,0.009-0.003,0.015  c0.002,0.026-0.01,0.048-0.019,0.074c-0.009,0.024-0.011,0.048-0.028,0.067c-0.003,0.004-0.002,0.011-0.006,0.015l-0.289,0.289  l0.151,0.478c0,0.003-0.001,0.005,0,0.007c0.003,0.011-0.001,0.02,0,0.03c0.001,0.009,0.01,0.014,0.01,0.023  c0,0.018-0.014,0.028-0.019,0.045c-0.004,0.018,0,0.035-0.009,0.052c-0.001,0.002,0,0.005-0.001,0.007l-0.235,0.391l0.089,0.285  c0.005,0,0.008,0.004,0.013,0.006c0.014,0.002,0.027-0.006,0.04,0l0.766,0.328l6.845-5.334c0.006-0.004,0.013-0.001,0.019-0.005  c0.006-0.003,0.006-0.012,0.013-0.015l0.706-0.363c-0.007-0.068,0.027-0.123,0.076-0.165h-0.021  c-0.004,0.001-0.007,0.005-0.011,0.005c-0.004,0-0.007-0.005-0.011-0.005h-0.116c-0.11,0-0.2-0.09-0.2-0.2  c0-0.048,0.022-0.088,0.051-0.123l-0.079,0.01c-0.007,0-0.015,0.001-0.022,0.001c-0.1,0-0.187-0.075-0.198-0.179  c-0.001-0.008,0.006-0.014,0.007-0.022c-0.019,0.006-0.039,0.014-0.058,0.014c-0.073,0-0.144-0.04-0.179-0.11l-0.031-0.062  c-0.004-0.008,0.001-0.017-0.002-0.024c-0.003-0.011-0.014-0.016-0.016-0.026c-0.001-0.008,0.005-0.013,0.004-0.02  c-0.001-0.008-0.008-0.012-0.008-0.02v-0.062c0-0.039,0.022-0.07,0.042-0.101l-0.028,0.009c-0.021,0.008-0.042,0.011-0.063,0.011  c-0.051,0-0.094-0.024-0.131-0.058l-0.098,0.02l-0.083,0.027c-0.018,0.006-0.036,0.008-0.054,0.01c-0.002,0-0.004,0.002-0.006,0.002  c-0.001,0-0.001-0.001-0.002-0.001c0,0-0.001,0-0.001,0c-0.048,0-0.09-0.021-0.126-0.051c-0.006-0.005-0.015-0.003-0.021-0.009  c-0.008-0.01-0.007-0.024-0.013-0.036c-0.009-0.015-0.024-0.024-0.03-0.041c-0.002-0.007,0.003-0.014,0.001-0.021l-0.11-0.193  c-0.001-0.002,0-0.004-0.001-0.006s-0.003-0.002-0.004-0.004l-0.042-0.084l-0.229,0.158c0,0.001-0.001,0.001-0.002,0.001  c0,0.001,0,0.001-0.001,0.001c-0.034,0.023-0.073,0.034-0.111,0.034c-0.063,0-0.125-0.03-0.165-0.087c0,0,0-0.001,0-0.002  c0,0-0.001,0-0.001,0l-0.055-0.083l-0.167-0.186l-0.251,0.167c-0.004,0.004-0.01,0.002-0.015,0.005  c-0.003,0.002-0.003,0.007-0.007,0.008c-0.029,0.015-0.059,0.021-0.089,0.021c-0.06,0-0.114-0.032-0.152-0.081  c-0.004-0.005-0.011-0.003-0.015-0.008c-0.002-0.004,0-0.008-0.002-0.011c-0.002-0.005-0.008-0.007-0.01-0.011l-0.019-0.037  l-0.141-0.155l-0.196,0.231c-0.005,0.006-0.013,0.004-0.019,0.01c-0.037,0.035-0.082,0.062-0.134,0.062  c-0.03,0-0.061-0.007-0.089-0.021L36.21,9.723c-0.003-0.001-0.003-0.006-0.007-0.008c-0.004-0.003-0.01-0.001-0.015-0.005  l-0.133-0.088L35.868,9.88c-0.039,0.055-0.1,0.083-0.162,0.083c-0.035,0-0.071-0.009-0.103-0.028l-0.156-0.094  c-0.001-0.001-0.001-0.003-0.002-0.004c-0.002-0.001-0.004,0-0.005-0.002l-0.097-0.064l-0.178,0.336  c-0.009,0.017-0.024,0.025-0.037,0.038c-0.009,0.01-0.015,0.021-0.026,0.028c-0.034,0.023-0.072,0.04-0.114,0.04  c-0.013,0-0.026-0.001-0.039-0.004l-0.156-0.031c-0.003-0.001-0.004-0.004-0.006-0.005c-0.008-0.002-0.017-0.001-0.025-0.004  l-0.079-0.029l-0.17,0.363c-0.011,0.024-0.031,0.039-0.049,0.057c-0.009,0.008-0.014,0.02-0.023,0.027  c-0.032,0.02-0.07,0.032-0.108,0.032c-0.025,0-0.05-0.005-0.074-0.015l-0.138-0.055l-0.097-0.02l-0.123,0.442  c-0.005,0.019-0.021,0.029-0.031,0.046c-0.007,0.012-0.008,0.024-0.018,0.035c-0.005,0.005-0.01,0.008-0.015,0.012  c-0.026,0.022-0.056,0.033-0.09,0.041c-0.009,0.002-0.015,0.012-0.025,0.012l-0.295,0.021l-0.12,0.455  c-0.004,0.016-0.018,0.024-0.025,0.039c-0.007,0.014-0.011,0.025-0.021,0.037c-0.006,0.008-0.011,0.014-0.018,0.02  c-0.021,0.019-0.046,0.026-0.073,0.035c-0.011,0.003-0.017,0.015-0.028,0.016l-0.284,0.041l-0.014,0.126l-0.031,0.371  c-0.001,0.011-0.01,0.017-0.013,0.025c-0.005,0.023-0.016,0.039-0.028,0.06c-0.009,0.014-0.01,0.031-0.021,0.042  c-0.009,0.009-0.021,0.009-0.032,0.017c-0.009,0.006-0.011,0.018-0.021,0.021l-0.297,0.137L32.375,13.085z"/><path fill="#000000" d="M40.265,9.708c0-0.004-0.004-0.008-0.004-0.012c-0.004,0-0.008-0.004-0.012-0.004l-0.014,0.01  c-0.02,0.016-0.042,0.016-0.064,0.022l-0.396,0.255l0.066-0.024l0.405-0.231L40.265,9.708z"/><path fill="#000000" d="M31.034,11.993l-9,7.045l-0.115,0.373c0.003-0.006,0.01-0.008,0.014-0.014  c0.011-0.014,0.011-0.031,0.024-0.043l9.062-7.062c0.005-0.003,0.011-0.001,0.016-0.004c0.005-0.004,0.005-0.01,0.011-0.014  l0.906-0.5c0.014-0.007,0.029,0,0.043-0.004c0.014-0.005,0.023-0.019,0.038-0.02l0.239-0.019l0.015-0.146  c0.002-0.021,0.019-0.032,0.026-0.05c0.008-0.021,0.011-0.041,0.025-0.058c0.006-0.007,0.009-0.013,0.015-0.019  c0.016-0.015,0.038-0.017,0.057-0.024c0.016-0.008,0.025-0.021,0.042-0.025l-0.464,0.074L31.034,11.993z"/><path fill="#000000" d="M38.04,8.421l-0.018-0.109L37.93,8.511l-0.054,0.32l0.025,0.246l0.106,0.191l0.007,0.003l0.041,0.021  c0.01-0.002,0.016-0.011,0.026-0.011h0.188c0.007,0,0.012,0.007,0.019,0.008c0.006,0.001,0.012-0.005,0.019-0.003  c0.019,0.003,0.031,0.021,0.049,0.031c0.024,0.012,0.046,0.02,0.063,0.04c0.004,0.005,0.012,0.005,0.016,0.011c0,0,0,0.001,0,0.002  c0,0,0.001,0,0.001,0l0.02,0.03l0.01,0.003l0.354-0.055l0.337-0.097c0.007-0.009,0.019-0.009,0.027-0.017  c0.008-0.006,0.009-0.017,0.017-0.021l0.219-0.125l0.206-0.117l0.385-0.297l0.357-0.357L40.65,7.95  c0.003-0.009-0.002-0.018,0.002-0.027l0.027-0.055l0.117-0.293l0.081-0.324l-0.026-0.213c0-0.005,0.004-0.008,0.003-0.013  S40.85,7.018,40.85,7.013V7.011l-0.029-0.043c-0.001-0.002,0-0.004-0.001-0.006s-0.003-0.001-0.004-0.002l-0.069-0.115L40.57,6.733  l-0.273-0.049l-0.354,0.055l-0.045,0.016c0.009,0.002,0.014,0.012,0.022,0.014c0.01,0.004,0.021-0.002,0.031,0.003l0.125,0.062  c0.015,0.007,0.018,0.024,0.03,0.034c0.012,0.01,0.029,0.01,0.039,0.021l0.208,0.269l0.057,0.057  c0.009,0.009,0.006,0.021,0.013,0.031c0.007,0.009,0.02,0.011,0.024,0.021l0.031,0.062c0.007,0.016,0,0.031,0.003,0.046  c0,0.002,0.001,0.003,0.002,0.005c0.001,0.006,0.003,0.008,0.005,0.014c0.001,0.01,0.011,0.016,0.011,0.025  c0,0.002-0.001,0.002-0.001,0.004l0.029,0.145c0.001,0.006-0.004,0.01-0.003,0.016c0.001,0.008,0.009,0.014,0.009,0.021  c0,0.013-0.011,0.018-0.013,0.029c-0.001,0.01,0.006,0.018,0.003,0.027L40.461,7.88c-0.001,0.005-0.005,0.006-0.007,0.011  c-0.001,0.003,0.001,0.006,0,0.009l-0.062,0.156C40.39,8.06,40.387,8.06,40.385,8.063c-0.001,0.002,0,0.005,0,0.008l-0.031,0.062  c-0.003,0.006-0.01,0.008-0.013,0.014c-0.002,0.004,0,0.009-0.003,0.013l-0.156,0.219c-0.003,0.005-0.01,0.003-0.013,0.007  c-0.005,0.006-0.003,0.014-0.008,0.019l-0.219,0.219c-0.002,0.002-0.005,0.001-0.008,0.003c-0.002,0.002-0.001,0.006-0.003,0.008  l-0.219,0.188c-0.007,0.006-0.018,0.004-0.026,0.01c-0.007,0.004-0.008,0.013-0.015,0.017l-0.25,0.125  c-0.003,0.002-0.007,0.001-0.011,0.003c-0.002,0-0.002,0.003-0.004,0.004l-0.156,0.062c-0.002,0.001-0.005,0-0.007,0.002  c-0.001,0-0.002,0.002-0.003,0.002l-0.094,0.031c-0.007,0.002-0.013,0.002-0.02,0.004c-0.002,0-0.003,0.002-0.005,0.003  l-0.156,0.031c-0.013,0.003-0.026,0.004-0.039,0.004h-0.062c-0.021,0-0.042-0.003-0.063-0.011l-0.063-0.021h-0.061  c-0.03,0-0.061-0.007-0.089-0.021l-0.062-0.031L38.46,9.004c-0.01-0.005-0.012-0.018-0.021-0.024  c-0.022-0.016-0.035-0.033-0.049-0.057c-0.009-0.014-0.025-0.021-0.031-0.035l-0.077-0.077l-0.125-0.125  c-0.007-0.007-0.005-0.019-0.011-0.026c-0.01-0.015-0.026-0.023-0.033-0.041l-0.062-0.156c-0.003-0.007,0.002-0.014,0-0.021  C38.05,8.433,38.042,8.429,38.04,8.421z"/><path fill="#000000" d="M45.752,57.405c0.005-0.012,0-0.025,0.008-0.037l0.319-0.468h-0.957l0.464,1.206l0.143-0.667  C45.732,57.425,45.746,57.419,45.752,57.405z"/><path fill="#000000" d="M39.846,7.165L39.8,7.143l-0.13-0.021l-0.203,0.025l-0.18,0.052l-0.214,0.133l-0.235,0.177L38.67,7.676  l-0.169,0.226l-0.07,0.141l-0.022,0.155l0.023,0.137l0.026,0.065l0.032,0.016l0.111,0.022h0.043h0.016l0.164-0.027l0.209-0.052  l0.223-0.141c0.003-0.002,0.007,0,0.01-0.001c0.003-0.002,0.003-0.007,0.006-0.008l0.032-0.017l0.134-0.134l0.031-0.031l0.183-0.183  l0.129-0.155l0.046-0.115L39.86,7.48l0.044-0.133L39.887,7.28c-0.002-0.01,0.004-0.016,0.003-0.025  c-0.001-0.008-0.01-0.014-0.01-0.023V7.224L39.846,7.165z"/><polygon fill="#000000" points="41.147,10.003 41.141,10.015 41.025,10.104 41.039,10.11 41.166,10.019 41.393,9.771 41.394,9.765   41.16,9.998 "/><polygon fill="#000000" points="71.324,30.119 71.081,30.119 70.948,30.119 70.936,30.198 70.833,30.966 72.664,31.533   72.741,30.957 71.583,30.223 "/><polygon fill="#000000" points="66.863,24.317 59.396,21.942 60.541,23.309 63.488,24.251 "/><polygon fill="#000000" points="60.88,27.158 60.858,26.816 59.607,26.408 59.102,27.243 60.769,27.783 "/><polygon fill="#000000" points="43.759,19.343 44.049,19.425 44.167,19.089 44.412,17.655 44.387,17.023 44.344,17.005 "/><path fill="#000000" d="M48.017,19.376l-0.288,0.205c-0.003,0.002-0.007,0.002-0.01,0.004c-0.002,0.002-0.002,0.005-0.005,0.006  l-1.062,0.625c-0.01,0.006-0.021,0.005-0.031,0.009c-0.005,0.003-0.007,0.009-0.013,0.011l-0.006,0.002l2.939,0.936L48.017,19.376z"/><path fill="#000000" d="M48.636,18.646c-0.005,0.006-0.014,0.003-0.019,0.009c-0.006,0.006-0.005,0.015-0.012,0.02l-0.061,0.044  h1.218l-0.931-0.29L48.636,18.646z"/><polygon fill="#000000" points="74.473,32.108 73.111,31.2 73.052,31.654 "/><polygon fill="#000000" points="51.391,21.75 52.122,21.75 49.925,19.119 48.323,19.119 50.258,21.401 "/><path fill="#000000" d="M53.131,22.308l7.139,2.247l0.319-0.554l-0.317-0.391l-1.617-1.929l-0.152-0.152  c-0.006-0.007-0.004-0.016-0.01-0.022c-0.004-0.005-0.012-0.003-0.016-0.008l-0.022-0.035l-8.184-2.586l-0.011,0.018l2.443,2.926  L53.131,22.308z"/><polygon fill="#000000" points="49.038,24.056 52.857,25.261 52.944,25.197 52.019,24.117 "/><polygon fill="#000000" points="54.891,25.031 54.779,24.905 52.619,24.203 53.329,25.031 "/><polygon fill="#000000" points="55.238,25.432 53.395,25.432 55.918,26.236 "/><polygon fill="#000000" points="58.711,27.118 59.215,26.284 55.509,25.132 56.634,26.464 "/><path fill="#000000" d="M67.568,29.935l0.59-0.785l-6.891-2.201l0.014,0.208c0,0.009-0.008,0.015-0.009,0.024  c0,0.008,0.007,0.015,0.005,0.023l-0.125,0.701L67.568,29.935z"/><path fill="#000000" d="M70.515,30.324l-0.098-0.021l-0.312-0.062c-0.004-0.001-0.006-0.005-0.01-0.007  c-0.01-0.002-0.021-0.002-0.03-0.006l-0.219-0.094c-0.024-0.011-0.034-0.035-0.053-0.054c-0.01-0.011-0.026-0.007-0.035-0.019  l-0.062-0.094c-0.002-0.004,0-0.008-0.002-0.011c-0.002-0.005-0.008-0.007-0.01-0.011c-0.009-0.018,0-0.036-0.004-0.055  s-0.019-0.032-0.017-0.052l0.019-0.222l-0.243-0.086l-0.568,0.811l1.575,0.501L70.515,30.324z"/><polygon fill="#000000" points="68.285,30.157 68.471,30.216 69.036,29.411 68.878,29.367 "/><path fill="#000000" d="M44.939,19.702l0.226,0.075l0.181-0.022l0.933-0.331l0.975-0.548l0.895-0.664l-0.151-0.043l-0.796,0.598  c-0.004,0.004-0.01,0.002-0.015,0.005c-0.003,0.002-0.003,0.007-0.007,0.009l-0.938,0.531c-0.008,0.004-0.016,0.003-0.024,0.006  c-0.005,0.002-0.006,0.009-0.011,0.01L45.27,19.64c-0.009,0.004-0.019,0.004-0.028,0.005c-0.002,0.001-0.003,0.003-0.005,0.003  l-0.293,0.046L44.939,19.702z"/><polygon fill="#000000" points="40.449,10.483 40.45,10.486 40.564,10.421 "/><rect x="50.875" y="84.869" fill="#000000" width="0.287" height="1.443"/><rect x="51.562" y="84.869" fill="#000000" width="0.631" height="1.443"/><rect x="49.875" y="84.869" fill="#000000" width="0.6" height="1.443"/><rect x="55.75" y="84.869" fill="#000000" width="0.037" height="1.443"/><rect x="54.281" y="84.869" fill="#000000" width="0.068" height="1.443"/><rect x="52.594" y="84.869" fill="#000000" width="0.225" height="1.443"/><rect x="54.75" y="84.869" fill="#000000" width="0.6" height="1.443"/><rect x="48.094" y="84.869" fill="#000000" width="0.537" height="1.443"/><rect x="53.219" y="84.869" fill="#000000" width="0.662" height="1.443"/><rect x="49.031" y="84.869" fill="#000000" width="0.443" height="1.443"/><rect x="42.844" y="84.869" fill="#000000" width="0.287" height="1.443"/><rect x="41.812" y="84.869" fill="#000000" width="0.631" height="1.443"/><rect x="41.188" y="84.869" fill="#000000" width="0.225" height="1.443"/><rect x="46.312" y="84.869" fill="#000000" width="0.506" height="1.443"/><rect x="44.531" y="84.869" fill="#000000" width="0.443" height="1.443"/><rect x="47.219" y="84.869" fill="#000000" width="0.475" height="1.443"/><rect x="45.375" y="84.869" fill="#000000" width="0.537" height="1.443"/><path fill="#000000" d="M61.175,86.713h-0.25h-0.25h-0.237v1.979l0.918,0.021l0.146-6.008l-2.721-0.081v0.263v0.237h1.456  c0.11,0,0.2,0.09,0.2,0.2v1.144h0.237h0.25h0.25c0.11,0,0.2,0.09,0.2,0.2v1.844C61.375,86.623,61.285,86.713,61.175,86.713z"/><path fill="#000000" d="M43.728,67.289l0.225-0.149l0.005-0.006l0.049-0.072l0.076-0.127l0.08-0.32v-0.123l-0.027-0.219  l-0.118-0.443l-0.203-0.434l-0.289-0.404l-0.353-0.324l-0.356-0.274c-0.005-0.001-0.011-0.001-0.017-0.003l-0.094-0.031  c-0.002,0-0.003-0.004-0.005-0.004c-0.004-0.002-0.008-0.001-0.012-0.003l-0.245-0.108c-0.01-0.001-0.02-0.002-0.03-0.004  l-0.259-0.058h-0.072h-0.092l-0.157,0.052c-0.021,0.008-0.042,0.011-0.063,0.011h-0.002l-0.043,0.028  c-0.001,0.002-0.003,0.001-0.005,0.002c-0.001,0.001-0.001,0.003-0.002,0.004l-0.12,0.071l-0.169,0.242l-0.051,0.281v0.386  l0.047,0.129l0.061-0.211c0.003-0.01,0.013-0.014,0.017-0.021c0.003-0.009-0.001-0.019,0.004-0.027l0.094-0.156  c0.007-0.012,0.022-0.013,0.031-0.022c0.009-0.011,0.009-0.025,0.021-0.034l0.25-0.188c0.003-0.002,0.008,0,0.011-0.003  c0.003-0.002,0.003-0.007,0.006-0.009l0.156-0.094c0.006-0.004,0.014,0,0.021-0.003c0.008-0.004,0.012-0.013,0.02-0.016l0.092-0.03  c0.011-0.004,0.021,0.004,0.033,0.002c0.011-0.002,0.019-0.013,0.03-0.013H42.3h0.031h0.062c0.006,0,0.009,0.005,0.014,0.006  s0.009-0.005,0.014-0.003l0.219,0.031c0.01,0.001,0.014,0.011,0.023,0.014c0.009,0.002,0.018-0.004,0.027,0l0.219,0.094  c0.006,0.002,0.007,0.01,0.013,0.014c0.006,0.003,0.013,0,0.019,0.004l0.094,0.062c0.002,0.002,0.002,0.006,0.005,0.008  c0.002,0.002,0.006,0,0.009,0.002s0.002,0.008,0.006,0.01c0.003,0.003,0.008,0.002,0.011,0.005c0.002,0.003,0.002,0.007,0.004,0.009  l0.09,0.061c0.006,0.004,0.006,0.012,0.011,0.017c0.006,0.005,0.014,0.003,0.02,0.008l0.219,0.219  c0.005,0.005,0.003,0.012,0.007,0.017c0.004,0.004,0.011,0.004,0.014,0.009l0.156,0.219c0.002,0.003,0,0.008,0.002,0.012  c0.003,0.003,0.008,0.003,0.01,0.007l0.156,0.281c0.005,0.01,0,0.019,0.003,0.027c0.004,0.01,0.014,0.013,0.016,0.021l0.062,0.25  c0.002,0.01-0.004,0.016-0.003,0.025c0.001,0.008,0.01,0.014,0.01,0.023v0.25c0,0.008-0.007,0.012-0.008,0.02  c-0.001,0.007,0.005,0.012,0.004,0.02l-0.031,0.156c-0.001,0.008-0.009,0.012-0.012,0.02c-0.005,0.033-0.005,0.068-0.028,0.098  l-0.125,0.156c-0.004,0.005-0.011,0.003-0.016,0.008c-0.005,0.005-0.003,0.013-0.009,0.018l-0.25,0.219  c-0.005,0.005-0.013,0.003-0.019,0.007c-0.005,0.004-0.005,0.011-0.01,0.015l-0.156,0.094c-0.016,0.01-0.035,0.01-0.052,0.014  c-0.007,0.002-0.011,0.01-0.018,0.012l-0.188,0.031c-0.01,0.002-0.021,0.003-0.032,0.003c0,0,0,0,0,0h0  c-0.01,0-0.019-0.001-0.028-0.003l-0.088-0.012l0.219,0.101c0.005-0.011,0.018-0.013,0.024-0.022c0.01-0.014,0.017-0.026,0.03-0.037  c0.013-0.011,0.025-0.016,0.041-0.023c0.009-0.004,0.011-0.016,0.021-0.018l0.094-0.031c0.054-0.018,0.109-0.01,0.156,0.016  l0.078-0.02c0.105-0.027,0.216,0.038,0.242,0.145c0.004,0.018-0.007,0.033-0.007,0.051L43.728,67.289z"/><rect x="56.188" y="84.869" fill="#000000" width="0.631" height="1.443"/><polygon fill="#000000" points="43.81,64.053 43.816,64.058 43.825,64.054 43.766,64.018 43.797,64.042 43.802,64.05 "/><path fill="#000000" d="M45.125,61.407c0.009,0,0.014,0.007,0.023,0.008c0.009,0,0.015-0.008,0.023-0.006l0.1,0.014l0.634-0.862  c-0.004-0.009-0.015-0.015-0.018-0.025l-0.046-0.167l-0.77,1.044L45.125,61.407z"/><path fill="#000000" d="M39.093,70.183C39.092,70.183,39.092,70.183,39.093,70.183l-0.387,0.238l-0.015,0.015l-0.476,0.476  l-0.325,0.68l-0.268,0.773l-0.06,0.844v9.917h3.412V73.2c0-0.004,0.004-0.007,0.005-0.011c0-0.004-0.004-0.007-0.003-0.011  l0.094-0.875c0-0.006,0.006-0.008,0.007-0.014s-0.003-0.011-0.002-0.017l0.219-0.812c0.003-0.01,0.013-0.013,0.017-0.022  c0.004-0.008-0.001-0.018,0.004-0.026l0.181-0.31l-0.017-0.082c-0.001-0.006,0.004-0.01,0.003-0.016c0-0.007-0.005-0.012-0.005-0.02  c0-0.001-0.002-0.002-0.002-0.004c0-0.021,0.017-0.035,0.022-0.055c0.007-0.023,0.009-0.046,0.024-0.064  c0.004-0.006,0.002-0.012,0.006-0.016l0.283-0.309l-0.053-0.504c0-0.004,0.002-0.006,0.002-0.009h-2.011l-0.079,0.011  c-0.037,0.048-0.087,0.083-0.151,0.083c-0.04,0-0.072-0.022-0.103-0.043l-0.202,0.034L39.093,70.183z"/><path fill="#000000" d="M46.45,64.054c0.002,0.006-0.001,0.012,0,0.018c0.003,0.006,0.01,0.008,0.012,0.015l0.106,0.399v-0.127  l-0.052-0.157l-0.031-0.094l-0.056-0.14l-0.209-0.447l-0.291-0.407l-0.352-0.353l-0.076-0.051c-0.006-0.004-0.006-0.012-0.011-0.017  c-0.006-0.005-0.014-0.003-0.02-0.008l-0.046-0.046l-0.134-0.08c-0.001-0.001-0.001-0.003-0.002-0.004  c-0.002-0.001-0.004,0-0.005-0.002l-0.08-0.053l-0.182-0.082l-0.009,0.013c0.001,0.001,0.001,0.003,0.003,0.003  c0.005,0.003,0.012,0,0.018,0.004l0.438,0.281c0.007,0.004,0.006,0.013,0.013,0.018s0.015,0.003,0.021,0.009l0.375,0.375  c0.003,0.003,0.002,0.009,0.005,0.013s0.009,0.003,0.012,0.007l0.312,0.406c0.005,0.007,0.002,0.016,0.006,0.022  c0.004,0.007,0.013,0.008,0.016,0.016L46.45,64.054z"/><path fill="#000000" d="M44.829,62.782l-0.202-0.086c-0.001,0-0.001-0.002-0.003-0.003c-0.002-0.001-0.005-0.001-0.008-0.002  l-0.16-0.08l-0.276-0.046c-0.021,0.018-0.046,0.021-0.071,0.029c0,0-0.001,0-0.001,0.001l0.003,0.001  c0.008,0.001,0.012,0.01,0.02,0.012c0.007,0.002,0.015-0.004,0.022-0.001l0.406,0.156c0.008,0.003,0.01,0.013,0.018,0.017  c0.008,0.004,0.017,0,0.024,0.006l0.332,0.229c0.03-0.003,0.06-0.008,0.088,0.002c-0.003-0.014-0.015-0.021-0.015-0.035  c0-0.026,0.019-0.044,0.028-0.067L44.829,62.782z"/><path fill="#000000" d="M39.367,69.679l0.118-0.354c0.003-0.009,0.013-0.011,0.017-0.019c0.003-0.008,0-0.017,0.004-0.023l0.312-0.5  c0.001-0.003,0.005-0.003,0.007-0.006c0.001-0.002,0-0.006,0.002-0.008l1.685-2.277l-0.112-0.128  c-0.002-0.003-0.001-0.006-0.003-0.009l-1.618,2.176l-0.325,0.562l-0.184,0.604L39.367,69.679z"/><rect x="58.531" y="84.869" fill="#000000" width="0.537" height="1.443"/><polygon fill="#000000" points="60.475,86.312 60.475,84.869 60.237,84.869 60.188,84.869 60.188,86.312 60.237,86.312 "/><rect x="59.469" y="84.869" fill="#000000" width="0.318" height="1.443"/><rect x="57.438" y="84.869" fill="#000000" width="0.506" height="1.443"/><rect x="40.125" y="84.869" fill="#000000" width="0.662" height="1.443"/><path fill="#000000" d="M58.062,82.838v0.019v0.269h0.318v-0.099c-0.04-0.04-0.066-0.092-0.062-0.152l0.003-0.036H58.062z"/><polygon fill="#000000" points="57.769,83.525 57.612,83.525 47.612,83.525 43.331,83.525 41.175,83.525 37.362,83.525   33.938,83.525 33.938,84.469 34.019,84.469 34.737,84.469 35.675,84.469 35.862,84.469 36.769,84.469 36.987,84.469 38.019,84.469   38.456,84.469 39.456,84.469 39.925,84.469 40.987,84.469 41.612,84.469 42.644,84.469 43.331,84.469 44.331,84.469 45.175,84.469   46.112,84.469 47.019,84.469 47.894,84.469 48.831,84.469 49.675,84.469 50.675,84.469 51.362,84.469 52.394,84.469 53.019,84.469   54.081,84.469 54.55,84.469 55.55,84.469 55.987,84.469 57.019,84.469 57.237,84.469 58.144,84.469 58.331,84.469 59.269,84.469   59.987,84.469 60.037,84.469 60.037,83.525 58.581,83.525 57.862,83.525 57.8,83.525 "/><polygon fill="#000000" points="57.812,82.438 57.862,82.438 58.256,82.438 58.256,82.42 58.254,82.413 58.256,82.407   58.256,80.888 58.256,74.957 57.812,75.548 "/><rect x="43.531" y="84.869" fill="#000000" width="0.6" height="1.443"/><polygon fill="#000000" points="74.209,53.469 75.545,53.469 74.389,53.206 "/><polygon fill="#000000" points="77.157,53.425 77.676,48.814 74.645,52.854 "/><path fill="#000000" d="M73.878,53.934l-0.521,0.706c0.006,0.002,0.012-0.002,0.017,0l0.396,0.158L73.878,53.934z"/><polygon fill="#000000" points="33.818,86.312 33.818,84.869 33.737,84.869 33.531,84.869 33.531,86.312 33.737,86.312 "/><rect x="34.938" y="84.869" fill="#000000" width="0.537" height="1.443"/><rect x="34.219" y="84.869" fill="#000000" width="0.318" height="1.443"/><rect x="36.062" y="84.869" fill="#000000" width="0.506" height="1.443"/><rect x="39.656" y="84.869" fill="#000000" width="0.068" height="1.443"/><rect x="38.656" y="84.869" fill="#000000" width="0.6" height="1.443"/><polygon fill="#000000" points="23.375,94.344 47.162,94.344 47.162,89.338 33.737,89.338 23.375,89.338 "/><rect x="38.219" y="84.869" fill="#000000" width="0.037" height="1.443"/><rect x="37.188" y="84.869" fill="#000000" width="0.631" height="1.443"/><polygon fill="#000000" points="77.225,88.938 77.225,87.588 74.085,87.588 74.062,88.106 74.062,88.731 74.059,88.739   74.062,88.747 74.047,88.938 "/><path fill="#000000" d="M67.361,82.47L67.361,82.47c0.002-0.001,0.003-0.001,0.004,0c0-0.001,0.001-0.001,0.001-0.001l3.094,0.062  c0.056,0.001,0.104,0.024,0.141,0.062c0.01,0.011,0.008,0.027,0.015,0.039c0.02,0.031,0.042,0.063,0.041,0.104v0.001l-0.152,6.201  h3.143l0.016-0.208v-0.623c0-0.002,0.002-0.003,0.002-0.005c0-0.001-0.002-0.003-0.002-0.004l0.031-0.71v-0.125  c0-0.002,0.003-0.004,0.003-0.007s-0.003-0.004-0.003-0.007l0.062-0.93v-1.025c0-0.002,0.002-0.002,0.002-0.004  c0,0-0.002-0.001-0.002-0.002l0.031-1.031l0.031-0.969c0-0.001,0.001-0.001,0.001-0.001c0-0.001-0.001-0.001-0.001-0.001  l0.031-0.805v-0.625V81.52l-7.506-0.208v0.326v0.625c0,0.004-0.004,0.006-0.004,0.009s0.003,0.005,0.003,0.008l-0.014,0.164  L67.361,82.47z"/><polygon fill="#000000" points="66.112,82.838 66.102,82.837 61.9,82.718 61.75,88.88 64.004,88.938 64.019,88.938 66.98,88.938   67.156,82.864 66.113,82.837 "/><path fill="#000000" d="M73.496,55.138l0.032-0.006l-0.033-0.014c0,0.001-0.001,0.002-0.001,0.002  C73.494,55.127,73.497,55.132,73.496,55.138z"/><polygon fill="#000000" points="58.656,82.222 61.705,82.313 61.706,82.312 61.711,82.313 61.712,82.313 65.929,82.433   65.943,82.258 65.943,81.638 65.943,81.301 58.656,81.093 "/><polygon fill="#000000" points="33.938,86.713 33.938,88.938 47.362,88.938 60.037,88.938 60.037,88.888 60.037,86.713   59.987,86.713 59.269,86.713 58.331,86.713 58.144,86.713 57.237,86.713 57.019,86.713 55.987,86.713 55.55,86.713 54.55,86.713   54.081,86.713 53.019,86.713 52.394,86.713 51.362,86.713 50.675,86.713 49.675,86.713 48.831,86.713 47.894,86.713 47.019,86.713   46.112,86.713 45.175,86.713 44.331,86.713 43.331,86.713 42.644,86.713 41.612,86.713 40.987,86.713 39.925,86.713 39.456,86.713   38.456,86.713 38.019,86.713 36.987,86.713 36.769,86.713 35.862,86.713 35.675,86.713 34.737,86.713 34.019,86.713 "/><polygon fill="#000000" points="83.609,88.938 82.693,87.588 77.625,87.588 77.625,88.938 "/><polygon fill="#000000" points="73.8,89.338 70.3,89.338 67.175,89.338 64.019,89.338 60.237,89.338 47.562,89.338 47.562,94.344   85.256,94.344 85.256,89.338 84.05,89.338 83.987,89.338 77.425,89.338 73.831,89.338 "/><polygon fill="#000000" points="67.557,82.873 67.381,88.938 70.105,88.938 70.252,82.928 "/><path fill="#000000" d="M20.781,25.45l0.03,0.871l0.117,0.375l1.116,0.344l0.046-0.035l-0.041-0.109  c-0.005-0.012,0.003-0.023,0.001-0.037c-0.002-0.012-0.014-0.02-0.014-0.033v-0.469c0-0.006,0.006-0.009,0.006-0.015  c0-0.005-0.004-0.009-0.003-0.014l0.031-0.219c0-0.002,0.002-0.003,0.002-0.005c0-0.002-0.001-0.004-0.001-0.006l0.031-0.156  c0.003-0.016,0.018-0.022,0.023-0.036c0.005-0.013,0-0.027,0.009-0.04l0.219-0.312c0.007-0.01,0.02-0.009,0.027-0.018  c0.008-0.008,0.007-0.021,0.017-0.027l0.125-0.094c0.003-0.002,0.008,0,0.011-0.003c0.003-0.002,0.003-0.007,0.006-0.009  l0.156-0.094c0.009-0.006,0.021,0,0.031-0.004c0.01-0.004,0.014-0.016,0.024-0.018l0.375-0.094c0.015-0.005,0.029,0.006,0.044,0.006  c0.016,0,0.029-0.012,0.046-0.008l0.438,0.094c0.007,0.001,0.01,0.01,0.018,0.012c0.006,0.002,0.013-0.003,0.019,0l0.221,0.095  l0.004,0.002l0.212,0.091c0.002,0.001,0.002,0.004,0.004,0.004c0.002,0.002,0.004,0,0.006,0.001l0.062,0.031  c0.004,0.003,0.005,0.009,0.009,0.011c0.005,0.003,0.011,0,0.015,0.004l0.406,0.281c0.005,0.004,0.005,0.011,0.01,0.016  c0.005,0.004,0.013,0.002,0.018,0.007l0.375,0.375c0.004,0.005,0.002,0.011,0.006,0.016c0.003,0.004,0.01,0.003,0.013,0.008  l0.344,0.469c0.004,0.005,0.001,0.012,0.004,0.017c0.004,0.006,0.011,0.006,0.014,0.012l0.25,0.5  c0.003,0.007-0.001,0.014,0.001,0.021s0.011,0.009,0.013,0.017l0.094,0.344c0,0.002-0.001,0.005-0.001,0.008  c0,0.002,0.004,0.003,0.004,0.006l0.031,0.156c0,0.002-0.002,0.004-0.001,0.007s0.003,0.003,0.003,0.006l0.062,0.469  c0.002,0.017-0.01,0.028-0.012,0.044c-0.001,0.016,0.009,0.03,0.003,0.046l-0.125,0.375c-0.002,0.007-0.01,0.011-0.013,0.019  c-0.002,0.004,0.001,0.01-0.002,0.016l-0.156,0.281c-0.004,0.007-0.015,0.004-0.02,0.012c-0.007,0.01-0.005,0.023-0.014,0.032  c-0.006,0.006-0.017,0.005-0.023,0.01s-0.007,0.015-0.015,0.021l-0.01,0.006c-0.006,0.006-0.006,0.016-0.014,0.02l-0.279,0.186  c-0.036,0.041-0.086,0.067-0.145,0.067h-0.145l-0.079,0.011l1.011,1.391c0.002,0.002,0,0.006,0.002,0.009  c0.001,0.001,0.003,0.001,0.004,0.003l0.178-0.025l0.022-0.011l0.382-0.235l0.001-0.002l0.342-0.512l0.144-0.689l-0.029-0.826  l-0.239-0.864l-0.515-1l-0.668-0.912l-0.79-0.82l-0.852-0.587c-0.012-0.003-0.024-0.003-0.036-0.008l-0.699-0.303l-0.782-0.116  l-0.675,0.112l-0.34,0.235l-0.198,0.284l-0.134,0.214l-0.173,0.694V25.45z"/><polygon fill="#000000" points="18.41,27.325 18.802,27.027 18.804,27.017 "/><polygon fill="#000000" points="12.117,34.11 12.714,34.515 12.739,34.354 12.152,33.944 "/><polygon fill="#000000" points="17.621,28.493 17.639,28.415 17.109,28.817 17.166,28.856 "/><polygon fill="#000000" points="16.434,29.471 16.399,29.638 16.605,29.771 16.734,29.675 "/><path fill="#000000" d="M13.098,30.693l-0.846,2.831l0.109,0.077c-0.005-0.018,0.004-0.036,0.004-0.054  c-0.001-0.021-0.013-0.04-0.006-0.061l0.688-2.312c0.003-0.011,0.014-0.014,0.019-0.023s0-0.02,0.005-0.029  c0.008-0.012,0.023-0.013,0.034-0.022c0.013-0.015,0.02-0.03,0.036-0.04c0.01-0.006,0.021-0.002,0.031-0.006  c0.023-0.009,0.042-0.01,0.067-0.01c0.015,0,0.027-0.012,0.043-0.008c0.002,0,0.003,0.004,0.006,0.004  c0.002,0.001,0.005-0.001,0.007,0c0.01,0.002,0.014,0.014,0.023,0.018c0.009,0.005,0.02,0,0.029,0.006l0.228,0.147  c-0.005-0.008-0.003-0.017-0.006-0.025c-0.012-0.024-0.018-0.044-0.02-0.071c-0.001-0.025,0.004-0.047,0.013-0.072  c0.005-0.014-0.001-0.029,0.008-0.043c0.007-0.011,0.021-0.012,0.029-0.021c0.008-0.009,0.007-0.022,0.018-0.03l2.562-1.969  c0.003-0.003,0.007-0.001,0.01-0.003c0.013-0.009,0.027-0.007,0.042-0.013c0.022-0.01,0.041-0.016,0.065-0.016  c0.013-0.001,0.024-0.007,0.038-0.005c0.003,0.001,0.005-0.002,0.008-0.001c0.014,0.002,0.02,0.016,0.032,0.021  c0.013,0.006,0.027,0,0.039,0.008l0.781,0.531c0.011,0.008,0.011,0.021,0.02,0.029c0.009,0.009,0.022,0.008,0.029,0.019  c0.01,0.013,0.005,0.028,0.011,0.043c0.011,0.024,0.017,0.045,0.018,0.071c0,0.027-0.005,0.048-0.015,0.072  c-0.006,0.015,0,0.031-0.009,0.044c-0.006,0.009-0.019,0.007-0.026,0.014c-0.01,0.011-0.01,0.026-0.021,0.035l-0.463,0.34  l-2.062,1.625c-0.037,0.028-0.08,0.043-0.124,0.043c-0.004,0-0.008-0.003-0.013-0.004l0.403,0.261c0.01,0.006,0.01,0.02,0.019,0.027  c0.009,0.008,0.021,0.006,0.029,0.016c0.011,0.014,0.006,0.03,0.013,0.045c0.012,0.023,0.02,0.044,0.021,0.07  c0.002,0.027-0.004,0.048-0.013,0.072c-0.005,0.016,0.001,0.032-0.008,0.047c-0.006,0.008-0.018,0.006-0.024,0.013  c-0.008,0.011-0.008,0.025-0.019,0.034l-0.469,0.375c0,0-0.001,0-0.001,0c0,0,0,0.001,0,0.001l-1.469,1.156  c-0.031,0.024-0.068,0.032-0.105,0.036l0.038,0.027l6.07-4.709l-0.951-0.633c0,0-0.001,0-0.002,0  c-0.004,0.004-0.003,0.009-0.008,0.012l-0.144,0.086L17.3,29.263c-0.037,0.029-0.081,0.044-0.125,0.044  c-0.04,0-0.079-0.012-0.114-0.036l-0.406-0.281c0,0,0,0-0.001,0l-0.312-0.219c-0.01-0.007-0.01-0.021-0.018-0.029  c-0.007-0.006-0.019-0.004-0.024-0.012c-0.011-0.014-0.007-0.031-0.013-0.047c-0.011-0.024-0.019-0.045-0.02-0.07  c-0.001-0.027,0.006-0.047,0.016-0.072c0.006-0.016,0-0.033,0.011-0.049c0.006-0.009,0.019-0.008,0.026-0.016  s0.006-0.02,0.015-0.026l2.512-1.974l-0.255-0.084L13.098,30.693z"/><polygon fill="#000000" points="18.393,28.062 20.085,28.272 20.671,27.812 19.277,27.649 19.275,27.648 19.267,27.647 18.979,27.6   "/><path fill="#000000" d="M19.998,27.155c-0.006,0.009-0.019,0.006-0.026,0.014c-0.009,0.012-0.009,0.027-0.022,0.036l-0.141,0.103  l1.389,0.162h0c0.01,0.002,0.017,0.013,0.026,0.016c0.025,0.006,0.042,0.02,0.062,0.035c0.003,0.002,0.006,0.002,0.008,0.004  l0.271-0.214l-0.85-0.261c-0.001-0.001-0.001-0.001-0.002-0.001l-0.219-0.062l-0.219-0.062l-0.219-0.062l-0.219-0.062  c-0.001,0-0.001-0.001-0.002-0.001c-0.001-0.001-0.003-0.001-0.005-0.002l-0.022-0.007l0.132,0.089  c0.011,0.007,0.011,0.021,0.02,0.029c0.009,0.008,0.022,0.008,0.03,0.019c0.009,0.013,0.004,0.028,0.011,0.042  c0.011,0.025,0.017,0.045,0.018,0.072c0,0.026-0.005,0.047-0.015,0.072C20.001,27.126,20.006,27.142,19.998,27.155z"/><polygon fill="#000000" points="19.482,27.052 19.23,26.884 19.205,27.042 19.357,27.144 "/><path fill="#000000" d="M41.304,8.602l-0.281,0.375c-0.002,0.003-0.007,0.002-0.009,0.005c-0.002,0.003-0.001,0.008-0.004,0.01  l-0.27,0.295c0,0.004,0.003,0.006,0.003,0.01l0.249-0.229l0.268-0.387c0.004-0.007,0.013-0.006,0.018-0.012l0.039-0.092  c-0.002,0.004-0.007,0.006-0.009,0.01C41.305,8.592,41.307,8.597,41.304,8.602z"/><text x="0" y="115" fill="#000000" font-size="5px" font-weight="bold" font-family="'Helvetica Neue', Helvetica, Arial-Unicode, Arial, Sans-serif">Created by Lluisa Iborra</text><text x="0" y="120" fill="#000000" font-size="5px" font-weight="bold" font-family="'Helvetica Neue', Helvetica, Arial-Unicode, Arial, Sans-serif">from the Noun Project</text></svg>